<svg xmlns="http://www.w3.org/2000/svg" width="32" height="28.969" viewBox="0 0 32 28.969">
  <metadata><?xpacket begin="﻿" id="W5M0MpCehiHzreSzNTczkc9d"?>
<x:xmpmeta xmlns:x="adobe:ns:meta/" x:xmptk="Adobe XMP Core 5.6-c138 79.159824, 2016/09/14-01:09:01        ">
   <rdf:RDF xmlns:rdf="http://www.w3.org/1999/02/22-rdf-syntax-ns#">
      <rdf:Description rdf:about=""/>
   </rdf:RDF>
</x:xmpmeta>
                                                                                                    
                                                                                                    
                                                                                                    
                                                                                                    
                                                                                                    
                                                                                                    
                                                                                                    
                                                                                                    
                                                                                                    
                                                                                                    
                                                                                                    
                                                                                                    
                                                                                                    
                                                                                                    
                                                                                                    
                                                                                                    
                                                                                                    
                                                                                                    
                                                                                                    
                                                                                                    
                           
<?xpacket end="w"?></metadata>
<defs>
    <style>
      .cls-1 {
        fill: #787878;
        fill-rule: evenodd;
      }
    </style>
  </defs>
  <path id="Forma_1" data-name="Forma 1" class="cls-1" d="M1421.88,71.952m-8.02-22.957a0.682,0.682,0,1,0,1.32-.346l-1.53-6.126a0.681,0.681,0,0,0-.83-0.5l-6,1.566a0.685,0.685,0,0,0-.49.846,0.667,0.667,0,0,0,.82.5l4.68-1.22-5.96,8.986-2.03-5.02a0.681,0.681,0,0,0-1.17-.153L1395.14,57.6a0.7,0.7,0,0,0,.13.973,0.685,0.685,0,0,0,.95-0.133l6.81-9.119,2.06,5.1a0.682,0.682,0,0,0,1.2.126l6.51-9.805Zm3.85,1.407c-4.51,0-9.29,1.373-9.29,3.919V67.079c0,2.546,4.78,3.919,9.29,3.919,4.61,0,9.29-1.347,9.29-3.919V54.321C1427,51.747,1422.32,50.4,1417.71,50.4Zm7.93,16.678c0,1.033-3.09,2.533-7.94,2.533s-7.93-1.5-7.93-2.533v-2.14c1.74,1.179,4.9,1.806,7.93,1.806,3.1,0,6.21-.606,7.94-1.773v2.107Zm0-4.253c0,1.033-3.09,2.533-7.94,2.533s-7.93-1.5-7.93-2.533v-2.14c1.74,1.18,4.9,1.806,7.93,1.806,3.1,0,6.21-.607,7.94-1.773v2.106Zm0-4.253c0,1.033-3.09,2.533-7.94,2.533s-7.93-1.5-7.93-2.533V56.434c1.74,1.18,4.9,1.806,7.93,1.806,3.1,0,6.21-.606,7.94-1.773v2.106Zm-7.93-1.719c-4.85,0-7.94-1.5-7.94-2.533s3.09-2.533,7.94-2.533,7.93,1.5,7.93,2.533S1422.55,56.853,1417.71,56.853Zm1.69-2.566a3.769,3.769,0,0,0-1.38-.393V52.981a0.617,0.617,0,0,1,.5.373l1.07-.08a0.958,0.958,0,0,0-.5-0.56,2.663,2.663,0,0,0-1.07-.253V52.227h-0.61v0.234a2.577,2.577,0,0,0-1.16.3,0.756,0.756,0,0,0-.44.647,0.775,0.775,0,0,0,.39.646,2.94,2.94,0,0,0,1.21.393v0.98a1.267,1.267,0,0,1-.41-0.194,0.729,0.729,0,0,1-.26-0.32l-1.1.067a1.15,1.15,0,0,0,.59.713,2.817,2.817,0,0,0,1.18.3V56.42h0.6v-0.44a2.836,2.836,0,0,0,1.28-.353,0.846,0.846,0,0,0,.47-0.713A0.722,0.722,0,0,0,1419.4,54.287Zm-1.99-.507a1.038,1.038,0,0,1-.41-0.173,0.281,0.281,0,0,1-.14-0.233,0.306,0.306,0,0,1,.15-0.247,0.984,0.984,0,0,1,.4-0.16v0.813Zm1.13,1.513a1.1,1.1,0,0,1-.52.16V54.541a1.351,1.351,0,0,1,.54.173,0.33,0.33,0,0,1,.17.267A0.363,0.363,0,0,1,1418.54,55.294Z" transform="translate(-1395 -42.031)"/>
</svg>
