<svg xmlns="http://www.w3.org/2000/svg" width="26" height="26" viewBox="0 0 26 26">
  <metadata><?xpacket begin="﻿" id="W5M0MpCehiHzreSzNTczkc9d"?>
<x:xmpmeta xmlns:x="adobe:ns:meta/" x:xmptk="Adobe XMP Core 5.6-c138 79.159824, 2016/09/14-01:09:01        ">
   <rdf:RDF xmlns:rdf="http://www.w3.org/1999/02/22-rdf-syntax-ns#">
      <rdf:Description rdf:about=""/>
   </rdf:RDF>
</x:xmpmeta>
                                                                                                    
                                                                                                    
                                                                                                    
                                                                                                    
                                                                                                    
                                                                                                    
                                                                                                    
                                                                                                    
                                                                                                    
                                                                                                    
                                                                                                    
                                                                                                    
                                                                                                    
                                                                                                    
                                                                                                    
                                                                                                    
                                                                                                    
                                                                                                    
                                                                                                    
                                                                                                    
                           
<?xpacket end="w"?></metadata>
<defs>
    <style>
      .cls-1 {
        fill: #787878;
        fill-rule: evenodd;
      }
    </style>
  </defs>
  <path class="cls-1" d="M282.818,44A2.183,2.183,0,1,0,285,46.182,2.18,2.18,0,0,0,282.818,44Zm0,3.244a1.061,1.061,0,1,1,1.061-1.061A1.06,1.06,0,0,1,282.818,47.244Zm-21.636,9.2a2.183,2.183,0,1,0,2.183,2.183A2.18,2.18,0,0,0,261.182,56.439Zm0,3.244a1.061,1.061,0,1,1,1.061-1.061A1.061,1.061,0,0,1,261.182,59.683Zm6.487-9.731a2.183,2.183,0,1,0,2.183,2.183A2.18,2.18,0,0,0,267.669,49.952Zm0,3.244a1.061,1.061,0,1,1,1.061-1.061A1.061,1.061,0,0,1,267.669,53.2Zm4.6,1.354a2.183,2.183,0,1,0,2.183,2.183A2.18,2.18,0,0,0,272.267,54.55Zm0,3.244a1.061,1.061,0,1,1,1.061-1.061A1.061,1.061,0,0,1,272.267,57.794Zm0.754-2.609,8.245-8.261,0.794,0.792-8.245,8.261Zm-4.6-1.507,0.792-.795,2.31,2.3-0.792.794Zm-6.486,3.4,4.19-4.19,0.793,0.793-4.19,4.191Zm-2.921,11.805h25.966V70H259.017V68.879Zm23.24-15.666h1.121V69.439h-1.121V53.213ZM271.983,61.33H273.1v8.109h-1.121V61.33Zm-11.361,1.622h1.121v6.487h-1.121V62.952Zm6.487-4.874h1.121V69.439h-1.121V58.078Z" transform="translate(-259 -44)"/>
</svg>
