<svg xmlns="http://www.w3.org/2000/svg" width="29" height="27" viewBox="0 0 29 27">
  <metadata><?xpacket begin="﻿" id="W5M0MpCehiHzreSzNTczkc9d"?>
<x:xmpmeta xmlns:x="adobe:ns:meta/" x:xmptk="Adobe XMP Core 5.6-c138 79.159824, 2016/09/14-01:09:01        ">
   <rdf:RDF xmlns:rdf="http://www.w3.org/1999/02/22-rdf-syntax-ns#">
      <rdf:Description rdf:about=""/>
   </rdf:RDF>
</x:xmpmeta>
                                                                                                    
                                                                                                    
                                                                                                    
                                                                                                    
                                                                                                    
                                                                                                    
                                                                                                    
                                                                                                    
                                                                                                    
                                                                                                    
                                                                                                    
                                                                                                    
                                                                                                    
                                                                                                    
                                                                                                    
                                                                                                    
                                                                                                    
                                                                                                    
                                                                                                    
                                                                                                    
                           
<?xpacket end="w"?></metadata>
<defs>
    <style>
      .cls-1 {
        fill: #787878;
        fill-rule: evenodd;
      }
    </style>
  </defs>
  <path class="cls-1" d="M282.516,132.85H281.3v-0.8l0.762-.852a2.416,2.416,0,0,0,.613-1.614v-2.022A2.547,2.547,0,0,0,280.147,125h-1.161a2.547,2.547,0,0,0-2.523,2.564v2.022a2.421,2.421,0,0,0,.613,1.614l0.762,0.852v0.8h-1.221a2.5,2.5,0,0,0-2.425,1.982,2.67,2.67,0,0,0-.381-0.028H272.38v-0.976l0.873-.976a2.666,2.666,0,0,0,.676-1.78v-2.277a2.813,2.813,0,0,0-2.787-2.832,0.443,0.443,0,0,0,0,.886,1.933,1.933,0,0,1,1.915,1.946v2.277a1.775,1.775,0,0,1-.45,1.184l-0.9,1.006a0.444,0.444,0,0,0-.2.373v1.612a0.44,0.44,0,0,0,.436.443h1.867a1.888,1.888,0,0,1,1.87,1.9v2.78H265.3v-2.78a1.9,1.9,0,0,1,1.224-1.783,0.474,0.474,0,0,0,.1-0.033,1.825,1.825,0,0,1,.551-0.085h1.866a0.439,0.439,0,0,0,.436-0.443v-1.612a0.442,0.442,0,0,0-.2-0.373l-0.9-1.006a1.775,1.775,0,0,1-.45-1.184v-2.277a1.933,1.933,0,0,1,1.915-1.946,0.443,0.443,0,0,0,0-.886,2.813,2.813,0,0,0-2.787,2.832v2.277a2.666,2.666,0,0,0,.676,1.78l0.873,0.976V134.8h-1.43a2.676,2.676,0,0,0-.36.025,2.5,2.5,0,0,0-2.424-1.979h-1.221v-0.8l0.761-.852a2.417,2.417,0,0,0,.614-1.614v-2.022A2.547,2.547,0,0,0,262.013,125h-1.16a2.547,2.547,0,0,0-2.524,2.564v2.022a2.417,2.417,0,0,0,.614,1.614l0.762,0.852v0.8h-1.221A2.507,2.507,0,0,0,256,135.374v2.862a0.44,0.44,0,0,0,.436.443h6.783a0.443,0.443,0,0,0,0-.886h-6.347v-2.419a1.627,1.627,0,0,1,1.612-1.638h1.657a0.44,0.44,0,0,0,.436-0.443v-1.432a0.445,0.445,0,0,0-.195-0.369l-0.794-.888a1.528,1.528,0,0,1-.387-1.018v-2.022a1.667,1.667,0,0,1,1.652-1.678h1.16a1.667,1.667,0,0,1,1.652,1.678v2.022a1.523,1.523,0,0,1-.387,1.018l-0.793.888a0.443,0.443,0,0,0-.195.369v1.432a0.439,0.439,0,0,0,.436.443h1.657a1.622,1.622,0,0,1,1.586,1.349,2.792,2.792,0,0,0-1.545,2.506v3.223a0.44,0.44,0,0,0,.436.443h11.257a0.44,0.44,0,0,0,.436-0.443v-3.223a2.8,2.8,0,0,0-1.524-2.5,1.623,1.623,0,0,1,1.588-1.359h1.657a0.439,0.439,0,0,0,.436-0.443v-1.432a0.443,0.443,0,0,0-.195-0.369l-0.793-.888a1.523,1.523,0,0,1-.387-1.018v-2.022a1.667,1.667,0,0,1,1.651-1.678h1.161a1.666,1.666,0,0,1,1.651,1.678v2.022a1.527,1.527,0,0,1-.386,1.018l-0.794.888a0.445,0.445,0,0,0-.195.369v1.432a0.439,0.439,0,0,0,.436.443h1.657a1.627,1.627,0,0,1,1.612,1.638v2.418h-6.272a0.443,0.443,0,0,0,0,.886h6.708a0.439,0.439,0,0,0,.436-0.443v-2.861A2.507,2.507,0,0,0,282.516,132.85Zm-7.632,14.021a0.438,0.438,0,0,0-.344-0.3l-2.381-.4L271.051,144a0.433,0.433,0,0,0-.775,0l-1.107,2.179-2.382.4a0.44,0.44,0,0,0-.344.3,0.449,0.449,0,0,0,.105.449l1.7,1.744-0.364,2.424a0.444,0.444,0,0,0,.174.425,0.432,0.432,0,0,0,.256.085,0.438,0.438,0,0,0,.2-0.047l2.157-1.1,2.156,1.1a0.43,0.43,0,0,0,.452-0.038,0.447,0.447,0,0,0,.175-0.425l-0.364-2.424,1.7-1.744A0.447,0.447,0,0,0,274.884,146.871Zm-2.575,1.728a0.447,0.447,0,0,0-.121.378l0.27,1.8-1.6-.816a0.43,0.43,0,0,0-.392,0l-1.6.816,0.27-1.8a0.446,0.446,0,0,0-.121-0.378l-1.258-1.292,1.765-.295a0.436,0.436,0,0,0,.317-0.234l0.821-1.614,0.821,1.614a0.434,0.434,0,0,0,.316.234l1.765,0.295Zm12.119-4.985a0.436,0.436,0,0,0-.344-0.3l-2.382-.4-1.108-2.179a0.433,0.433,0,0,0-.774,0l-1.108,2.179-2.382.4a0.438,0.438,0,0,0-.344.3,0.448,0.448,0,0,0,.105.448l1.7,1.744-0.364,2.424a0.448,0.448,0,0,0,.174.426,0.43,0.43,0,0,0,.452.037l2.157-1.1,2.156,1.1a0.432,0.432,0,0,0,.452-0.037,0.447,0.447,0,0,0,.175-0.426l-0.364-2.424,1.7-1.744A0.448,0.448,0,0,0,284.428,143.614Zm-2.576,1.727a0.448,0.448,0,0,0-.121.379l0.27,1.8-1.6-.816a0.432,0.432,0,0,0-.392,0l-1.6.816,0.27-1.8a0.448,0.448,0,0,0-.121-0.379l-1.258-1.292,1.765-.294a0.439,0.439,0,0,0,.317-0.234l0.821-1.615,0.821,1.615a0.439,0.439,0,0,0,.317.234l1.764,0.294Zm-16.511-1.727a0.435,0.435,0,0,0-.344-0.3l-2.381-.4-1.108-2.179a0.434,0.434,0,0,0-.775,0l-1.108,2.179-2.381.4a0.437,0.437,0,0,0-.344.3,0.445,0.445,0,0,0,.105.448l1.7,1.744-0.364,2.425a0.448,0.448,0,0,0,.175.425,0.43,0.43,0,0,0,.452.037l2.156-1.1,2.157,1.1a0.424,0.424,0,0,0,.195.047,0.432,0.432,0,0,0,.257-0.084,0.448,0.448,0,0,0,.175-0.425l-0.365-2.425,1.7-1.744A0.447,0.447,0,0,0,265.341,143.614Zm-2.576,1.727a0.45,0.45,0,0,0-.12.379l0.269,1.8-1.6-.816a0.43,0.43,0,0,0-.391,0l-1.6.816,0.269-1.8a0.448,0.448,0,0,0-.121-0.379l-1.257-1.292,1.765-.294a0.441,0.441,0,0,0,.317-0.234l0.821-1.615,0.82,1.615a0.441,0.441,0,0,0,.317.234l1.765,0.294Z" transform="translate(-256 -125)"/>
</svg>
