<svg xmlns="http://www.w3.org/2000/svg" width="27" height="22" viewBox="0 0 27 22">
  <metadata><?xpacket begin="﻿" id="W5M0MpCehiHzreSzNTczkc9d"?>
<x:xmpmeta xmlns:x="adobe:ns:meta/" x:xmptk="Adobe XMP Core 5.6-c138 79.159824, 2016/09/14-01:09:01        ">
   <rdf:RDF xmlns:rdf="http://www.w3.org/1999/02/22-rdf-syntax-ns#">
      <rdf:Description rdf:about=""/>
   </rdf:RDF>
</x:xmpmeta>
                                                                                                    
                                                                                                    
                                                                                                    
                                                                                                    
                                                                                                    
                                                                                                    
                                                                                                    
                                                                                                    
                                                                                                    
                                                                                                    
                                                                                                    
                                                                                                    
                                                                                                    
                                                                                                    
                                                                                                    
                                                                                                    
                                                                                                    
                                                                                                    
                                                                                                    
                                                                                                    
                           
<?xpacket end="w"?></metadata>
<defs>
    <style>
      .cls-1 {
        fill: #787878;
        fill-rule: evenodd;
      }
    </style>
  </defs>
  <path id="Forma_1" data-name="Forma 1" class="cls-1" d="M1236,46V68h27V46m-0.9.9v2.245h-25.2V46.9m0,20.2V50.04h25.2V67.1h-25.2Zm9.45-13.918a0.449,0.449,0,1,1-.45.449A0.448,0.448,0,0,1,1246.35,53.183Zm3.15,0a0.449,0.449,0,1,1-.45.449A0.448,0.448,0,0,1,1249.5,53.183Zm3.15,0a0.449,0.449,0,1,1-.45.449A0.448,0.448,0,0,1,1252.65,53.183Zm3.15,0a0.449,0.449,0,1,1-.45.449A0.448,0.448,0,0,1,1255.8,53.183Zm3.15,0a0.449,0.449,0,1,1-.45.449A0.448,0.448,0,0,1,1258.95,53.183Zm-18.9,3.592a0.449,0.449,0,1,1-.45.449A0.449,0.449,0,0,1,1240.05,56.775Zm3.15,0a0.449,0.449,0,1,1-.45.449A0.449,0.449,0,0,1,1243.2,56.775Zm3.15,0a0.449,0.449,0,1,1-.45.449A0.449,0.449,0,0,1,1246.35,56.775Zm3.15,0a0.449,0.449,0,1,1-.45.449A0.449,0.449,0,0,1,1249.5,56.775Zm3.15,0a0.449,0.449,0,1,1-.45.449A0.449,0.449,0,0,1,1252.65,56.775Zm3.15,0a0.449,0.449,0,1,1-.45.449A0.449,0.449,0,0,1,1255.8,56.775Zm3.15,0a0.449,0.449,0,1,1-.45.449A0.449,0.449,0,0,1,1258.95,56.775Zm-18.9,3.143a0.449,0.449,0,1,1-.45.449A0.449,0.449,0,0,1,1240.05,59.918Zm3.15,0a0.449,0.449,0,1,1-.45.449A0.449,0.449,0,0,1,1243.2,59.918Zm3.15,0a0.449,0.449,0,1,1-.45.449A0.449,0.449,0,0,1,1246.35,59.918Zm3.15,0a0.449,0.449,0,1,1-.45.449A0.449,0.449,0,0,1,1249.5,59.918Zm3.15,0a0.449,0.449,0,1,1-.45.449A0.449,0.449,0,0,1,1252.65,59.918Zm3.15,0a0.449,0.449,0,1,1-.45.449A0.449,0.449,0,0,1,1255.8,59.918Zm3.15,0a0.449,0.449,0,1,1-.45.449A0.449,0.449,0,0,1,1258.95,59.918Zm-18.9,3.592a0.449,0.449,0,1,1-.45.449A0.448,0.448,0,0,1,1240.05,63.509Zm3.15,0a0.449,0.449,0,1,1-.45.449A0.448,0.448,0,0,1,1243.2,63.509Zm3.15,0a0.449,0.449,0,1,1-.45.449A0.448,0.448,0,0,1,1246.35,63.509Zm3.15,0a0.449,0.449,0,1,1-.45.449A0.448,0.448,0,0,1,1249.5,63.509Zm3.15,0a0.449,0.449,0,1,1-.45.449A0.448,0.448,0,0,1,1252.65,63.509Z" transform="translate(-1236 -46)"/>
</svg>
