<svg xmlns="http://www.w3.org/2000/svg" width="27" height="26" viewBox="0 0 27 26">
  <metadata><?xpacket begin="﻿" id="W5M0MpCehiHzreSzNTczkc9d"?>
<x:xmpmeta xmlns:x="adobe:ns:meta/" x:xmptk="Adobe XMP Core 5.6-c138 79.159824, 2016/09/14-01:09:01        ">
   <rdf:RDF xmlns:rdf="http://www.w3.org/1999/02/22-rdf-syntax-ns#">
      <rdf:Description rdf:about=""/>
   </rdf:RDF>
</x:xmpmeta>
                                                                                                    
                                                                                                    
                                                                                                    
                                                                                                    
                                                                                                    
                                                                                                    
                                                                                                    
                                                                                                    
                                                                                                    
                                                                                                    
                                                                                                    
                                                                                                    
                                                                                                    
                                                                                                    
                                                                                                    
                                                                                                    
                                                                                                    
                                                                                                    
                                                                                                    
                                                                                                    
                           
<?xpacket end="w"?></metadata>
<defs>
    <style>
      .cls-1 {
        fill: #cc921f;
        fill-rule: evenodd;
      }
    </style>
  </defs>
  <path id="Forma_1" data-name="Forma 1" class="cls-1" d="M1589,47.167a0.559,0.559,0,0,0-.56-0.558h-4.91c0.01-.348.02-0.7,0.02-1.051a0.559,0.559,0,0,0-.56-0.558h-14.98a0.559,0.559,0,0,0-.56.558c0,0.352,0,.7.02,1.051h-4.91a0.559,0.559,0,0,0-.56.558,8.3,8.3,0,0,0,7.42,8.4c0.09,0.2.19,0.387,0.28,0.575a8.394,8.394,0,0,0,4.14,4.27,2.69,2.69,0,0,0,.14,4.379v0.6a3.152,3.152,0,0,1-3.15,3.139,0.558,0.558,0,0,0-.56.558v1.358a0.559,0.559,0,0,0,.56.558h9.34a0.559,0.559,0,0,0,.56-0.558V69.083a0.558,0.558,0,0,0-.56-0.558,3.14,3.14,0,0,1-3.15-3.139v-0.6a2.691,2.691,0,0,0,.14-4.381,8.394,8.394,0,0,0,4.14-4.27c0.09-.187.19-0.379,0.28-0.575A8.3,8.3,0,0,0,1589,47.167Zm-5.53.558h2.11a7.341,7.341,0,0,1-3.13,5.556A25.166,25.166,0,0,0,1583.47,47.725Zm-15.94,0a25.166,25.166,0,0,0,1.02,5.556,7.341,7.341,0,0,1-3.13-5.556h2.11Zm-4.39,0h1.16a8.464,8.464,0,0,0,3.36,6.291A7.263,7.263,0,0,1,1563.14,47.725Zm14.01,20.67a4.231,4.231,0,0,0,2.46,1.21v0.278h-8.22V69.6a4.267,4.267,0,0,0,3.71-4.219V65.223a2.743,2.743,0,0,0,.4.029,2.847,2.847,0,0,0,.4-0.029v0.163A4.2,4.2,0,0,0,1577.15,68.4Zm-1.65-4.259a1.588,1.588,0,1,1,1.6-1.588A1.6,1.6,0,0,1,1575.5,64.136Zm0-4.531c-1.78,0-3.48-1.411-4.8-3.974a22.208,22.208,0,0,1-2.12-9.516h13.84a22.355,22.355,0,0,1-2.12,9.517C1578.98,58.194,1577.28,59.605,1575.5,59.605Zm7.84-5.59a8.464,8.464,0,0,0,3.36-6.291h1.16A7.28,7.28,0,0,1,1583.34,54.016Z" transform="translate(-1562 -45)"/>
</svg>
