<svg xmlns="http://www.w3.org/2000/svg" width="27" height="23.125" viewBox="0 0 27 23.125">
  <metadata><?xpacket begin="﻿" id="W5M0MpCehiHzreSzNTczkc9d"?>
<x:xmpmeta xmlns:x="adobe:ns:meta/" x:xmptk="Adobe XMP Core 5.6-c138 79.159824, 2016/09/14-01:09:01        ">
   <rdf:RDF xmlns:rdf="http://www.w3.org/1999/02/22-rdf-syntax-ns#">
      <rdf:Description rdf:about=""/>
   </rdf:RDF>
</x:xmpmeta>
                                                                                                    
                                                                                                    
                                                                                                    
                                                                                                    
                                                                                                    
                                                                                                    
                                                                                                    
                                                                                                    
                                                                                                    
                                                                                                    
                                                                                                    
                                                                                                    
                                                                                                    
                                                                                                    
                                                                                                    
                                                                                                    
                                                                                                    
                                                                                                    
                                                                                                    
                                                                                                    
                           
<?xpacket end="w"?></metadata>
<defs>
    <style>
      .cls-1 {
        fill: #787878;
        fill-rule: evenodd;
      }
    </style>
  </defs>
  <path id="Forma_1" data-name="Forma 1" class="cls-1" d="M931.141,56.156c0-.005,0-0.01,0-0.015a0.447,0.447,0,0,0-.015-0.071h0a0.538,0.538,0,0,0-.023-0.064l-0.008-.018a0.493,0.493,0,0,0-.024-0.045,0.144,0.144,0,0,0-.011-0.02l-0.006-.01c-0.009-.014-0.019-0.027-0.029-0.039l0-.008a0.676,0.676,0,0,0-.05-0.053l-0.01-.009c-0.015-.014-0.03-0.027-0.046-0.039l-0.013-.009a0.7,0.7,0,0,0-.067-0.042l-9-4.9,5.181-3.123L935.7,52.42l-3.658,2.205a0.569,0.569,0,0,0-.191.806,0.626,0.626,0,0,0,.842.184l4.522-2.725a0.572,0.572,0,0,0-.024-1L927.3,46.5a0.636,0.636,0,0,0-.628.013l-6.349,3.828,0,0-3.173,1.913,0,0-6.354,3.83a0.572,0.572,0,0,0,.024,1l9.891,5.382a0.631,0.631,0,0,0,.627-0.013l4.522-2.725a0.57,0.57,0,0,0,.191-0.806,0.627,0.627,0,0,0-.842-0.184l-4.212,2.539L912.3,56.562l5.181-3.123,9.264,5.04v6.676a0.582,0.582,0,0,0,.316.512,0.633,0.633,0,0,0,.62-0.017l3.178-1.915a0.581,0.581,0,0,0,.285-0.5V56.224s0-.006,0-0.01A0.575,0.575,0,0,0,931.141,56.156ZM927.969,64.1V58.139a0.58,0.58,0,0,0-.309-0.508l-9-4.9,2-1.208,8.686,4.726-0.76.459a0.569,0.569,0,0,0-.192.806,0.618,0.618,0,0,0,.518.273,0.624,0.624,0,0,0,.324-0.09l0.688-.414v5.635Zm8.595-9.858-4.522,2.725a0.569,0.569,0,0,0-.191.806,0.616,0.616,0,0,0,.517.273,0.628,0.628,0,0,0,.325-0.09l4.522-2.725a0.57,0.57,0,0,0,.191-0.806A0.626,0.626,0,0,0,936.564,54.238ZM925.2,61.088l-4.212,2.539-9.573-5.209a0.626,0.626,0,0,0-.833.22,0.571,0.571,0,0,0,.229.8l9.891,5.381a0.633,0.633,0,0,0,.627-0.013l4.522-2.725a0.57,0.57,0,0,0,.191-0.806A0.626,0.626,0,0,0,925.2,61.088Zm11.364-4.511L932.042,59.3a0.569,0.569,0,0,0-.191.806,0.616,0.616,0,0,0,.517.273,0.628,0.628,0,0,0,.325-0.09l4.522-2.725a0.57,0.57,0,0,0,.191-0.806A0.627,0.627,0,0,0,936.564,56.577ZM925.2,63.427l-4.212,2.539-9.573-5.208a0.625,0.625,0,0,0-.833.219,0.57,0.57,0,0,0,.229.8l9.891,5.382a0.637,0.637,0,0,0,.627-0.013l4.522-2.725a0.57,0.57,0,0,0,.191-0.806A0.626,0.626,0,0,0,925.2,63.427Zm11.364-4.511-4.522,2.725a0.57,0.57,0,0,0-.191.806,0.617,0.617,0,0,0,.517.273,0.634,0.634,0,0,0,.325-0.09l4.522-2.725a0.57,0.57,0,0,0,.191-0.806A0.627,0.627,0,0,0,936.564,58.916ZM925.2,65.765L920.988,68.3,911.415,63.1a0.625,0.625,0,0,0-.833.22,0.57,0.57,0,0,0,.229.8l9.891,5.382a0.633,0.633,0,0,0,.627-0.013l4.522-2.726a0.57,0.57,0,0,0,.191-0.806A0.627,0.627,0,0,0,925.2,65.765Z" transform="translate(-910.5 -46.438)"/>
</svg>
