<svg xmlns="http://www.w3.org/2000/svg" width="29" height="29" viewBox="0 0 29 29">
  <metadata><?xpacket begin="﻿" id="W5M0MpCehiHzreSzNTczkc9d"?>
<x:xmpmeta xmlns:x="adobe:ns:meta/" x:xmptk="Adobe XMP Core 5.6-c138 79.159824, 2016/09/14-01:09:01        ">
   <rdf:RDF xmlns:rdf="http://www.w3.org/1999/02/22-rdf-syntax-ns#">
      <rdf:Description rdf:about=""/>
   </rdf:RDF>
</x:xmpmeta>
                                                                                                    
                                                                                                    
                                                                                                    
                                                                                                    
                                                                                                    
                                                                                                    
                                                                                                    
                                                                                                    
                                                                                                    
                                                                                                    
                                                                                                    
                                                                                                    
                                                                                                    
                                                                                                    
                                                                                                    
                                                                                                    
                                                                                                    
                                                                                                    
                                                                                                    
                                                                                                    
                           
<?xpacket end="w"?></metadata>
<defs>
    <style>
      .cls-1 {
        fill: #787878;
        fill-rule: evenodd;
      }
    </style>
  </defs>
  <path id="Forma_1" data-name="Forma 1" class="cls-1" d="M81.5,14A14.5,14.5,0,1,0,96,28.5,14.5,14.5,0,0,0,81.5,14Zm0,27.791A13.291,13.291,0,1,1,94.791,28.5,13.291,13.291,0,0,1,81.5,41.791Zm0-24.77A11.479,11.479,0,1,0,92.979,28.5,11.479,11.479,0,0,0,81.5,17.021Zm0,21.749A10.27,10.27,0,1,1,91.77,28.5,10.27,10.27,0,0,1,81.5,38.77ZM85.125,28.5a3.021,3.021,0,0,0-1.812-5.437H78.479a0.6,0.6,0,0,0-.6.6v9.666a0.6,0.6,0,0,0,.6.6h4.833A3.021,3.021,0,0,0,85.125,28.5Zm-6.041-4.229h4.229a1.812,1.812,0,0,1,0,3.625H79.083V24.271h0Zm4.229,8.458H79.083V29.1h4.229A1.812,1.812,0,0,1,83.312,32.729ZM79.688,21.25H80.9v2.417H79.688V21.25Zm2.417,0h1.208v2.417H82.1V21.25ZM79.688,33.333H80.9V35.75H79.688V33.333Zm2.417,0h1.208V35.75H82.1V33.333ZM73.042,27.9H74.25V29.1H73.042V27.9Zm15.708,0h1.208V29.1H88.75V27.9Z" transform="translate(-67 -14)"/>
</svg>
