<svg xmlns="http://www.w3.org/2000/svg" width="19" height="15" viewBox="0 0 19 15">
  <metadata><?xpacket begin="﻿" id="W5M0MpCehiHzreSzNTczkc9d"?>
<x:xmpmeta xmlns:x="adobe:ns:meta/" x:xmptk="Adobe XMP Core 5.6-c138 79.159824, 2016/09/14-01:09:01        ">
   <rdf:RDF xmlns:rdf="http://www.w3.org/1999/02/22-rdf-syntax-ns#">
      <rdf:Description rdf:about=""/>
   </rdf:RDF>
</x:xmpmeta>
                                                                                                    
                                                                                                    
                                                                                                    
                                                                                                    
                                                                                                    
                                                                                                    
                                                                                                    
                                                                                                    
                                                                                                    
                                                                                                    
                                                                                                    
                                                                                                    
                                                                                                    
                                                                                                    
                                                                                                    
                                                                                                    
                                                                                                    
                                                                                                    
                                                                                                    
                                                                                                    
                           
<?xpacket end="w"?></metadata>
<defs>
    <style>
      .cls-1 {
        fill: #555;
        fill-rule: evenodd;
      }
    </style>
  </defs>
  <path id="Forma_1" data-name="Forma 1" class="cls-1" d="M416.549,23h-18.1a0.444,0.444,0,0,0-.448.439v12.22a0.444,0.444,0,0,0,.448.439h6.807v1.053c0,0.015,0,.03,0,0.044h-0.976a0.4,0.4,0,1,0,0,.805h6.656a0.4,0.4,0,1,0,0-.805h-0.977a0.32,0.32,0,0,0,.006-0.044V36.1h6.581A0.444,0.444,0,0,0,417,35.659V23.439A0.446,0.446,0,0,0,416.549,23Zm-0.822,10.744a0.444,0.444,0,0,1-.449.439H399.721a0.444,0.444,0,0,1-.449-0.439V24.477a0.444,0.444,0,0,1,.449-0.439h15.557a0.444,0.444,0,0,1,.449.439v9.266Z" transform="translate(-398 -23)"/>
</svg>
