<svg xmlns="http://www.w3.org/2000/svg" width="24.969" height="25" viewBox="0 0 24.969 25">
  <metadata><?xpacket begin="﻿" id="W5M0MpCehiHzreSzNTczkc9d"?>
<x:xmpmeta xmlns:x="adobe:ns:meta/" x:xmptk="Adobe XMP Core 5.6-c138 79.159824, 2016/09/14-01:09:01        ">
   <rdf:RDF xmlns:rdf="http://www.w3.org/1999/02/22-rdf-syntax-ns#">
      <rdf:Description rdf:about=""/>
   </rdf:RDF>
</x:xmpmeta>
                                                                                                    
                                                                                                    
                                                                                                    
                                                                                                    
                                                                                                    
                                                                                                    
                                                                                                    
                                                                                                    
                                                                                                    
                                                                                                    
                                                                                                    
                                                                                                    
                                                                                                    
                                                                                                    
                                                                                                    
                                                                                                    
                                                                                                    
                                                                                                    
                                                                                                    
                                                                                                    
                           
<?xpacket end="w"?></metadata>
<defs>
    <style>
      .cls-1 {
        fill: #787878;
        fill-rule: evenodd;
      }
    </style>
  </defs>
  <path id="Forma_1" data-name="Forma 1" class="cls-1" d="M426.9,50.688a0.781,0.781,0,0,1,0-1.562h1.561a0.781,0.781,0,0,0,0-1.562h-0.78V46.781a0.781,0.781,0,1,0-1.561,0v0.925a2.338,2.338,0,0,0,.78,4.544,0.781,0.781,0,0,1,0,1.563h-1.561a0.781,0.781,0,0,0,0,1.563h0.781v0.781a0.781,0.781,0,1,0,1.561,0V55.231A2.339,2.339,0,0,0,426.9,50.688Zm19.9,17.244a0.779,0.779,0,0,0-1.065.291,2.061,2.061,0,0,1-1.664,1.216,2.273,2.273,0,0,1-1.846-1.562h1.066a0.781,0.781,0,0,0,0-1.562H441.78a6.129,6.129,0,0,1,0-1.562h2.291a0.781,0.781,0,0,0,0-1.562h-1.846a2.274,2.274,0,0,1,1.846-1.562,2.061,2.061,0,0,1,1.664,1.216,0.78,0.78,0,1,0,1.355-.775,3.556,3.556,0,0,0-3.019-2c-1.584,0-2.907,1.267-3.526,3.125h-1.156a0.781,0.781,0,0,0,0,1.563h0.835c-0.025.258-.055,0.513-0.055,0.781s0.03,0.523.055,0.781h-0.835a0.781,0.781,0,0,0,0,1.563h1.156c0.617,1.858,1.942,3.125,3.526,3.125a3.552,3.552,0,0,0,3.019-2A0.779,0.779,0,0,0,446.8,67.931Zm-10.533-1.619H430.8a3.126,3.126,0,0,1-3.121-3.125v-2.02l1.788,1.791a0.781,0.781,0,1,0,1.105-1.1l-3.121-3.125a0.8,0.8,0,0,0-.255-0.17,0.773,0.773,0,0,0-.6,0,0.811,0.811,0,0,0-.254.17l-3.12,3.123a0.781,0.781,0,1,0,1.1,1.106l1.79-1.792v2.02a4.691,4.691,0,0,0,4.682,4.688h5.463A0.781,0.781,0,0,0,436.267,66.313Zm11.477-12.27a0.781,0.781,0,0,0-1.1,0l-1.788,1.792v-2.02a4.691,4.691,0,0,0-4.683-4.687h-5.463a0.781,0.781,0,0,0,0,1.563h5.463a3.126,3.126,0,0,1,3.122,3.125v2.02L441.5,54.042a0.781,0.781,0,0,0-1.1,1.1l3.12,3.124a0.811,0.811,0,0,0,.254.17,0.777,0.777,0,0,0,.6,0,0.747,0.747,0,0,0,.255-0.17l3.12-3.123A0.783,0.783,0,0,0,447.744,54.042Z" transform="translate(-423.031 -46)"/>
</svg>
