<svg xmlns="http://www.w3.org/2000/svg" width="30" height="22.875" viewBox="0 0 30 22.875">
  <metadata><?xpacket begin="﻿" id="W5M0MpCehiHzreSzNTczkc9d"?>
<x:xmpmeta xmlns:x="adobe:ns:meta/" x:xmptk="Adobe XMP Core 5.6-c138 79.159824, 2016/09/14-01:09:01        ">
   <rdf:RDF xmlns:rdf="http://www.w3.org/1999/02/22-rdf-syntax-ns#">
      <rdf:Description rdf:about=""/>
   </rdf:RDF>
</x:xmpmeta>
                                                                                                    
                                                                                                    
                                                                                                    
                                                                                                    
                                                                                                    
                                                                                                    
                                                                                                    
                                                                                                    
                                                                                                    
                                                                                                    
                                                                                                    
                                                                                                    
                                                                                                    
                                                                                                    
                                                                                                    
                                                                                                    
                                                                                                    
                                                                                                    
                                                                                                    
                                                                                                    
                           
<?xpacket end="w"?></metadata>
<defs>
    <style>
      .cls-1 {
        fill: #787878;
        fill-rule: evenodd;
      }
    </style>
  </defs>
  <path class="cls-1" d="M776,53.329h-8a0.509,0.509,0,0,0-.464.315l-1.408,3.431-1.141-4.813a0.5,0.5,0,0,0-.976.008l-2.8,12.474L759.5,46a0.506,0.506,0,0,0-.955-0.164L754.675,54.3H747a0.487,0.487,0,1,0,0,.974h8a0.494,0.494,0,0,0,.457-0.28l3.216-7.04L760.5,67.994a0.5,0.5,0,0,0,.466.444H761a0.5,0.5,0,0,0,.488-0.382l3.025-13.463,1,4.218a0.5,0.5,0,0,0,.449.376,0.507,0.507,0,0,0,.5-0.315l1.875-4.572H776A0.487,0.487,0,1,0,776,53.329Z" transform="translate(-746.5 -45.563)"/>
</svg>
