<svg xmlns="http://www.w3.org/2000/svg" width="31" height="31" viewBox="0 0 31 31">
  <metadata><?xpacket begin="﻿" id="W5M0MpCehiHzreSzNTczkc9d"?>
<x:xmpmeta xmlns:x="adobe:ns:meta/" x:xmptk="Adobe XMP Core 5.6-c138 79.159824, 2016/09/14-01:09:01        ">
   <rdf:RDF xmlns:rdf="http://www.w3.org/1999/02/22-rdf-syntax-ns#">
      <rdf:Description rdf:about=""/>
   </rdf:RDF>
</x:xmpmeta>
                                                                                                    
                                                                                                    
                                                                                                    
                                                                                                    
                                                                                                    
                                                                                                    
                                                                                                    
                                                                                                    
                                                                                                    
                                                                                                    
                                                                                                    
                                                                                                    
                                                                                                    
                                                                                                    
                                                                                                    
                                                                                                    
                                                                                                    
                                                                                                    
                                                                                                    
                                                                                                    
                           
<?xpacket end="w"?></metadata>
<defs>
    <style>
      .cls-1 {
        fill: #787878;
        fill-rule: evenodd;
      }
    </style>
  </defs>
  <path class="cls-1" d="M430.466,144.713l-1.657-.691a0.419,0.419,0,0,0-.068-0.023l-1-.253v-0.6a7.472,7.472,0,0,1,1.812.518,0.477,0.477,0,0,0,.2.044,0.489,0.489,0,0,0,.407-0.22,0.39,0.39,0,0,0,.033-0.038,7.45,7.45,0,0,0,1.5-4.551c0-3.738-2.6-6.78-5.8-6.78s-5.8,3.042-5.8,6.78a7.426,7.426,0,0,0,1.556,4.625,0.094,0.094,0,0,0,.01.01l0.013,0.015c0.011,0.012.023,0.024,0.035,0.035l0.011,0.01a0.493,0.493,0,0,0,.173.093l0.009,0a0.348,0.348,0,0,0,.056.012l0.01,0a0.462,0.462,0,0,0,.065,0h0.009a0.379,0.379,0,0,0,.058,0l0.024,0a0.471,0.471,0,0,0,.062-0.016l0.021-.008,0.027-.011a7.519,7.519,0,0,1,1.807-.518v0.593l-1.07.256a0.491,0.491,0,0,0-.074.024l-1.657.692A3.589,3.589,0,0,0,419,148.165v2.345a0.49,0.49,0,0,0,.489.49h12.73a0.493,0.493,0,0,0,.488-0.494v-2.341A3.589,3.589,0,0,0,430.466,144.713Zm-8.266-2.089a6.516,6.516,0,0,1-1.127-3.723c0-3.2,2.162-5.8,4.82-5.8s4.819,2.6,4.819,5.8a6.53,6.53,0,0,1-1.126,3.723,8.311,8.311,0,0,0-.962-0.294,3.24,3.24,0,0,0,.749-1.545,1.584,1.584,0,0,0,.019-3.112,0.486,0.486,0,0,0-.356-0.3,4.582,4.582,0,0,1-2.745-1.522,0.49,0.49,0,0,0-.749-0.058,6.978,6.978,0,0,1-2.818,1.586,0.486,0.486,0,0,0-.33.293,1.584,1.584,0,0,0,.019,3.113,3.222,3.222,0,0,0,.748,1.544A8.429,8.429,0,0,0,422.2,142.624Zm7.227-2.9v-1A0.606,0.606,0,0,1,429.427,139.728Zm-7.069-1v1A0.606,0.606,0,0,1,422.358,138.726Zm0.977,1.47v-1.982a8.037,8.037,0,0,0,2.528-1.384,5.859,5.859,0,0,0,2.586,1.411V140.2a2.263,2.263,0,0,1-2.258,2.262h-0.6A2.264,2.264,0,0,1,423.335,140.2Zm1.309,4.407a0.489,0.489,0,0,0,.375-0.476v-0.742a3.214,3.214,0,0,0,.576.052h0.6a3.248,3.248,0,0,0,.57-0.051v0.741a0.49,0.49,0,0,0,.369.475l0.939,0.237-0.083.3a4.163,4.163,0,0,1-4.185.009l-0.089-.318Zm-0.811,5.418h-1.607v-1.963a0.489,0.489,0,1,0-.978,0v1.963h-1.271v-1.856a2.59,2.59,0,0,1,1.593-2.53l0.032-.012,1.18-.493,0.127,0.455a0,0,0,0,0,0,0l1.24,4.434h-0.317Zm2.787,0h-1.455l-1.02-3.645a5.214,5.214,0,0,0,1.758.312,4.988,4.988,0,0,0,1.737-.315Zm5.11,0h-1.271v-1.963a0.489,0.489,0,1,0-.978,0v1.963h-1.846L429,145.16l1.11,0.463,0.03,0.011a2.59,2.59,0,0,1,1.6,2.531v1.856h0Zm-4.828-22.5h2.2V129.8a0.491,0.491,0,0,0,.318.459,0.506,0.506,0,0,0,.171.031,0.49,0.49,0,0,0,.369-0.169l1.025-1.185a0.49,0.49,0,0,0,.462.331h5.3l2.247,2.6a0.489,0.489,0,0,0,.858-0.32v-2.276h2.2a0.489,0.489,0,0,0,.489-0.49v-6.544a0.49,0.49,0,0,0-.489-0.49h-4.06v-1.253a0.489,0.489,0,0,0-.488-0.489H426.9a0.489,0.489,0,0,0-.489.489v6.545A0.489,0.489,0,0,0,426.9,127.523Zm0.488-6.544h9.626v0.763H436.17a0.49,0.49,0,0,0,0,.98h5.394v5.565h-2.2a0.489,0.489,0,0,0-.489.489v1.454l-1.535-1.774a0.489,0.489,0,0,0-.369-0.169h-5.029v-5.566h2.6a0.49,0.49,0,0,0,0-.979h-3.09a0.489,0.489,0,0,0-.488.49v5.239l-0.88,1.016v-1.453a0.488,0.488,0,0,0-.488-0.49h-2.2v-5.565h0Zm20.369,23.7-1.631-.68-1.1-.725v-0.269a3.25,3.25,0,0,0,1.632-2.255,1.583,1.583,0,0,0,.89-2.617V136.59a4.226,4.226,0,0,0-4.218-4.224h-0.311a4.226,4.226,0,0,0-4.218,4.224v1.551a1.583,1.583,0,0,0,.9,2.61,3.251,3.251,0,0,0,1.631,2.255v0.24l-1.1.728a0.352,0.352,0,0,0-.042.015l-1.658.692a3.587,3.587,0,0,0-2.241,3.451v2.345a0.489,0.489,0,0,0,.489.49h3.21a0.49,0.49,0,0,0,0-.979h-0.473v-1.963a0.489,0.489,0,1,0-.977,0v1.963H437.27v-1.856a2.591,2.591,0,0,1,1.592-2.53,0.219,0.219,0,0,0,.033-0.012l1.18-.492,1.371,4.9a0.489,0.489,0,0,0,.109.966h7.956a0.493,0.493,0,0,0,.489-0.494v-2.341A3.589,3.589,0,0,0,447.759,144.68Zm-1.042-5.988a0.605,0.605,0,0,1,0,1v-1Zm-7.069,1a0.605,0.605,0,0,1,0-1v1Zm0.491-2.364h0a0.418,0.418,0,0,0-.05,0l-0.015,0-0.033,0-0.021.006-0.026.006-0.023.009-0.022.008-0.026.012-0.016.008-0.026.016-0.014.009-0.023.017-0.015.011-0.02.018-0.015.013-0.008.01V136.59a3.245,3.245,0,0,1,3.24-3.245h0.311a3.247,3.247,0,0,1,3.241,3.245v0.884l-0.012-.012-0.02-.017-0.016-.013-0.021-.016-0.018-.012-0.022-.013-0.022-.011-0.02-.01a0.215,0.215,0,0,0-.027-0.01l-0.017-.007-0.031-.009-0.013,0A2.182,2.182,0,0,1,445,135.782a0.489,0.489,0,0,0-.873-0.179C442.9,137.311,440.176,137.329,440.139,137.329Zm0.487,2.833v-1.88a6.53,6.53,0,0,0,3.731-1.472,2.832,2.832,0,0,0,1.383,1.363v1.989a2.264,2.264,0,0,1-2.259,2.262h-0.6A2.263,2.263,0,0,1,440.626,140.162Zm2.147,6.332,0.388-.286,0.4,0.295-0.128.34h-0.514Zm0.392-1.6-0.853-.832v-0.55h0v-0.163a3.274,3.274,0,0,0,.573.052h0.6a3.291,3.291,0,0,0,.573-0.052v0.621Zm-1.207,3.307-0.262-.939a0.487,0.487,0,0,0,.117-0.062l0.15-.11,0.126,0.3Zm-0.252-2.138-0.695-1.432,0.343-.227a0.487,0.487,0,0,0,.128.215l0.94,0.917Zm0.955,3.923,0.349-2.166h0.345l0.349,2.166h-1.043Zm2.233-5.479a0.514,0.514,0,0,0,.075-0.1l0.342,0.226-0.7,1.432-0.166-.123s0,0,0,0l-0.545-.4Zm-0.485,3.705-0.134-.831,0.1-.277,0.13,0.1a0.493,0.493,0,0,0,.162.077Zm4.613,1.774h-1.27v-1.963a0.489,0.489,0,1,0-.978,0v1.963h-1.846l1.36-4.861,1.11,0.463,0.029,0.011a2.591,2.591,0,0,1,1.595,2.531v1.856h0Z" transform="translate(-419 -120)"/>
</svg>
