<svg xmlns="http://www.w3.org/2000/svg" width="26" height="23" viewBox="0 0 26 23">
  <metadata><?xpacket begin="﻿" id="W5M0MpCehiHzreSzNTczkc9d"?>
<x:xmpmeta xmlns:x="adobe:ns:meta/" x:xmptk="Adobe XMP Core 5.6-c138 79.159824, 2016/09/14-01:09:01        ">
   <rdf:RDF xmlns:rdf="http://www.w3.org/1999/02/22-rdf-syntax-ns#">
      <rdf:Description rdf:about=""/>
   </rdf:RDF>
</x:xmpmeta>
                                                                                                    
                                                                                                    
                                                                                                    
                                                                                                    
                                                                                                    
                                                                                                    
                                                                                                    
                                                                                                    
                                                                                                    
                                                                                                    
                                                                                                    
                                                                                                    
                                                                                                    
                                                                                                    
                                                                                                    
                                                                                                    
                                                                                                    
                                                                                                    
                                                                                                    
                                                                                                    
                           
<?xpacket end="w"?></metadata>
<defs>
    <style>
      .cls-1 {
        fill: #787878;
        fill-rule: evenodd;
      }
    </style>
  </defs>
  <path id="Forma_1" data-name="Forma 1" class="cls-1" d="M1236.55,147.728h4.04a0.551,0.551,0,0,0,.55-0.544v-16a0.548,0.548,0,0,0-.55-0.544h-4.04a0.553,0.553,0,0,0-.56.544v16A0.55,0.55,0,0,0,1236.55,147.728Zm0.55-16h2.93v14.912h-2.93V131.723Zm6.41,16h4.04a0.551,0.551,0,0,0,.55-0.544V136.057a0.547,0.547,0,0,0-.55-0.543h-4.04a0.553,0.553,0,0,0-.56.543v11.127A0.55,0.55,0,0,0,1243.51,147.728Zm0.55-11.122h2.93V146.64h-2.93V136.606Zm6.4,11.122h4.04a0.545,0.545,0,0,0,.55-0.544V127.535a0.548,0.548,0,0,0-.55-0.544h-4.04a0.545,0.545,0,0,0-.55.544v19.649A0.541,0.541,0,0,0,1250.46,147.728Zm0.55-19.649h2.93V146.64h-2.93V128.079Zm10.44,5.019h-4.04a0.551,0.551,0,0,0-.55.544v13.542a0.548,0.548,0,0,0,.55.544h4.04a0.545,0.545,0,0,0,.55-0.544V133.642A0.545,0.545,0,0,0,1261.45,133.1Zm-0.55,13.542h-2.93V134.191h2.93V146.64Zm0.55,2.28h-24.9a0.544,0.544,0,1,0,0,1.087h24.9A0.544,0.544,0,1,0,1261.45,148.92Z" transform="translate(-1236 -127)"/>
</svg>
