<svg xmlns="http://www.w3.org/2000/svg" width="27" height="33" viewBox="0 0 27 33">
  <metadata><?xpacket begin="﻿" id="W5M0MpCehiHzreSzNTczkc9d"?>
<x:xmpmeta xmlns:x="adobe:ns:meta/" x:xmptk="Adobe XMP Core 5.6-c138 79.159824, 2016/09/14-01:09:01        ">
   <rdf:RDF xmlns:rdf="http://www.w3.org/1999/02/22-rdf-syntax-ns#">
      <rdf:Description rdf:about=""/>
   </rdf:RDF>
</x:xmpmeta>
                                                                                                    
                                                                                                    
                                                                                                    
                                                                                                    
                                                                                                    
                                                                                                    
                                                                                                    
                                                                                                    
                                                                                                    
                                                                                                    
                                                                                                    
                                                                                                    
                                                                                                    
                                                                                                    
                                                                                                    
                                                                                                    
                                                                                                    
                                                                                                    
                                                                                                    
                                                                                                    
                           
<?xpacket end="w"?></metadata>
<defs>
    <style>
      .cls-1 {
        fill: #787878;
        fill-rule: evenodd;
      }
    </style>
  </defs>
  <path class="cls-1" d="M120.259,61.953a1.983,1.983,0,0,0-1.371.377,1.928,1.928,0,0,0-1.448-.928,1.984,1.984,0,0,0-1.372.377,1.926,1.926,0,0,0-1.448-.928,1.993,1.993,0,0,0-1.08.2V58.5a10.257,10.257,0,0,0,2.82-7.066,10.683,10.683,0,1,0-10.68,10.437,10.789,10.789,0,0,0,3.983-.75v6.848a6.17,6.17,0,0,0,12.337,0V63.917A1.97,1.97,0,0,0,120.259,61.953Zm-10.6-6.934V60a9.711,9.711,0,0,1-3.983.841,9.406,9.406,0,1,1,9.623-9.4,9.21,9.21,0,0,1-1.762,5.426V55.1a1.948,1.948,0,0,0-3.24-1.484A1.881,1.881,0,0,0,109.663,55.02Zm11.28,12.952a5.112,5.112,0,0,1-10.222,0V55.02a0.852,0.852,0,0,1,.29-0.639,0.884,0.884,0,0,1,.591-0.222c0.03,0,.061,0,0.092,0a0.919,0.919,0,0,1,.789.935v7.638a0.529,0.529,0,0,0,1.058,0,0.852,0.852,0,0,1,.29-0.639,0.89,0.89,0,0,1,.683-0.218,0.919,0.919,0,0,1,.789.935v0.473a0.529,0.529,0,0,0,1.057,0,0.853,0.853,0,0,1,.291-0.639,0.888,0.888,0,0,1,.683-0.218,0.919,0.919,0,0,1,.789.935v0.473a0.529,0.529,0,0,0,1.057,0,0.853,0.853,0,0,1,.291-0.639,0.889,0.889,0,0,1,.683-0.218,0.919,0.919,0,0,1,.789.935v4.055h0ZM108.831,46.7a4.514,4.514,0,0,0-6.294-.036,4.293,4.293,0,0,0-1.333,3.115,0.529,0.529,0,0,0,1.057,0A3.28,3.28,0,0,1,103.28,47.4a3.437,3.437,0,0,1,5.819,2.331,3.361,3.361,0,0,1-3,3.364,1.069,1.069,0,0,0-.949,1.055v0.589a0.529,0.529,0,0,0,1.058,0V54.155a0.028,0.028,0,0,1,.02-0.029,4.4,4.4,0,0,0,3.927-4.4A4.292,4.292,0,0,0,108.831,46.7Zm-3.151,9.452a0.792,0.792,0,1,0,.811.792A0.8,0.8,0,0,0,105.68,56.157Z" transform="translate(-95 -41)"/>
</svg>
