<svg xmlns="http://www.w3.org/2000/svg" width="19" height="16" viewBox="0 0 19 16">
  <metadata><?xpacket begin="﻿" id="W5M0MpCehiHzreSzNTczkc9d"?>
<x:xmpmeta xmlns:x="adobe:ns:meta/" x:xmptk="Adobe XMP Core 5.6-c138 79.159824, 2016/09/14-01:09:01        ">
   <rdf:RDF xmlns:rdf="http://www.w3.org/1999/02/22-rdf-syntax-ns#">
      <rdf:Description rdf:about=""/>
   </rdf:RDF>
</x:xmpmeta>
                                                                                                    
                                                                                                    
                                                                                                    
                                                                                                    
                                                                                                    
                                                                                                    
                                                                                                    
                                                                                                    
                                                                                                    
                                                                                                    
                                                                                                    
                                                                                                    
                                                                                                    
                                                                                                    
                                                                                                    
                                                                                                    
                                                                                                    
                                                                                                    
                                                                                                    
                                                                                                    
                           
<?xpacket end="w"?></metadata>
<defs>
    <style>
      .cls-1 {
        fill: #333;
        fill-rule: evenodd;
      }
    </style>
  </defs>
  <path id="info_копия_3" data-name="info копия 3" class="cls-1" d="M419.921,1396H407.929a1.939,1.939,0,0,1-1.93-1.95v-12.1a1.939,1.939,0,0,1,1.93-1.95h11.992a1.939,1.939,0,0,1,1.93,1.95v1.95l2.582,2.7a2.063,2.063,0,0,1,.03,2.81l-2.612,2.85v1.79A1.939,1.939,0,0,1,419.921,1396Zm-11.992-14.65a0.6,0.6,0,0,0-.589.6v12.1a0.6,0.6,0,0,0,.589.6h11.992a0.6,0.6,0,0,0,.589-0.6v-2.06a0.689,0.689,0,0,1,.178-0.46l2.79-3.04a0.7,0.7,0,0,0-.01-0.95l-2.77-2.89a0.7,0.7,0,0,1-.188-0.47v-2.23a0.6,0.6,0,0,0-.589-0.6H407.929Zm6,11.32a0.68,0.68,0,0,1-.671-0.68v-4.95a0.671,0.671,0,0,1,1.342,0v4.95A0.68,0.68,0,0,1,413.925,1392.67Zm0-7.42a0.68,0.68,0,0,1-.671-0.68v-0.79a0.671,0.671,0,0,1,1.342,0v0.79A0.68,0.68,0,0,1,413.925,1385.25Z" transform="translate(-406 -1380)"/>
</svg>
