<svg xmlns="http://www.w3.org/2000/svg" width="27" height="27" viewBox="0 0 27 27">
  <metadata><?xpacket begin="﻿" id="W5M0MpCehiHzreSzNTczkc9d"?>
<x:xmpmeta xmlns:x="adobe:ns:meta/" x:xmptk="Adobe XMP Core 5.6-c138 79.159824, 2016/09/14-01:09:01        ">
   <rdf:RDF xmlns:rdf="http://www.w3.org/1999/02/22-rdf-syntax-ns#">
      <rdf:Description rdf:about=""/>
   </rdf:RDF>
</x:xmpmeta>
                                                                                                    
                                                                                                    
                                                                                                    
                                                                                                    
                                                                                                    
                                                                                                    
                                                                                                    
                                                                                                    
                                                                                                    
                                                                                                    
                                                                                                    
                                                                                                    
                                                                                                    
                                                                                                    
                                                                                                    
                                                                                                    
                                                                                                    
                                                                                                    
                                                                                                    
                                                                                                    
                           
<?xpacket end="w"?></metadata>
<defs>
    <style>
      .cls-1 {
        fill: #787878;
        fill-rule: evenodd;
      }
    </style>
  </defs>
  <path id="Forma_1" data-name="Forma 1" class="cls-1" d="M773.55,150.2H748.8v-24.75a0.45,0.45,0,1,0-.9,0V150.2h-0.45a0.45,0.45,0,0,0,0,.9h0.45v0.45a0.45,0.45,0,1,0,.9,0V151.1h24.75A0.45,0.45,0,1,0,773.55,150.2Zm-23.4-12.15h0.9a0.45,0.45,0,0,0,0-.9h-0.9A0.45,0.45,0,0,0,750.15,138.049Zm0-1.8h0.9a0.45,0.45,0,0,0,0-.9h-0.9A0.45,0.45,0,0,0,750.15,136.249Zm0-1.8h0.9a0.45,0.45,0,0,0,0-.9h-0.9A0.45,0.45,0,0,0,750.15,134.449Zm0-1.8h0.9a0.45,0.45,0,0,0,0-.9h-0.9A0.45,0.45,0,0,0,750.15,132.649Zm0-1.8h0.9a0.45,0.45,0,1,0,0-.9h-0.9A0.45,0.45,0,1,0,750.15,130.849Zm0-1.8h0.9a0.45,0.45,0,0,0,0-.9h-0.9A0.45,0.45,0,0,0,750.15,129.049Zm0-1.8h0.9a0.45,0.45,0,0,0,0-.9h-0.9A0.45,0.45,0,1,0,750.15,127.249Zm1.806,19.794a2.7,2.7,0,0,0,2-4.511l1.587-1.587a2.683,2.683,0,0,0,3.621,0l2.042,2.041a2.7,2.7,0,1,0,4.37.524l3.917-3.916a2.671,2.671,0,1,0-.563-0.71L765.01,142.8a2.687,2.687,0,0,0-3.1-.376l-2.19-2.19a2.7,2.7,0,1,0-4.746,0l-1.735,1.734A2.7,2.7,0,1,0,751.956,147.043ZM771.3,135.8a1.8,1.8,0,1,1-1.8,1.8A1.8,1.8,0,0,1,771.3,135.8Zm-6.3,9a1.8,1.8,0,1,1-1.8-1.8A1.8,1.8,0,0,1,765,144.8Zm-7.65-7.65a1.8,1.8,0,1,1-1.8,1.8A1.8,1.8,0,0,1,757.35,137.149Zm-5.394,5.4a1.8,1.8,0,1,1-1.8,1.8A1.8,1.8,0,0,1,751.956,142.544Z" transform="translate(-747 -125)"/>
</svg>
