<svg xmlns="http://www.w3.org/2000/svg" width="26" height="26" viewBox="0 0 26 26">
  <metadata><?xpacket begin="﻿" id="W5M0MpCehiHzreSzNTczkc9d"?>
<x:xmpmeta xmlns:x="adobe:ns:meta/" x:xmptk="Adobe XMP Core 5.6-c138 79.159824, 2016/09/14-01:09:01        ">
   <rdf:RDF xmlns:rdf="http://www.w3.org/1999/02/22-rdf-syntax-ns#">
      <rdf:Description rdf:about=""/>
   </rdf:RDF>
</x:xmpmeta>
                                                                                                    
                                                                                                    
                                                                                                    
                                                                                                    
                                                                                                    
                                                                                                    
                                                                                                    
                                                                                                    
                                                                                                    
                                                                                                    
                                                                                                    
                                                                                                    
                                                                                                    
                                                                                                    
                                                                                                    
                                                                                                    
                                                                                                    
                                                                                                    
                                                                                                    
                                                                                                    
                           
<?xpacket end="w"?></metadata>
<defs>
    <style>
      .cls-1 {
        fill: #5bb000;
        fill-rule: evenodd;
      }
    </style>
  </defs>
  <path class="cls-1" d="M1587.57,134.665h-13a0.415,0.415,0,0,0-.44.434v16.467a0.414,0.414,0,0,0,.44.433h13a0.407,0.407,0,0,0,.43-0.433V135.1A0.407,0.407,0,0,0,1587.57,134.665Zm-0.44.867v2.6H1575v-0.866h5.2V136.4H1575v-0.867h12.13Zm-12.13,15.6V139h12.13v12.134H1575Zm2.17-11.267h1.3v0.867h-1.3v-0.867Zm2.16,0h1.3v0.867h-1.3v-0.867Zm2.17,0h1.3v0.867h-1.3v-0.867Zm2.17,0h1.3v0.867h-1.3v-0.867Zm-7.37,2.166h1.73V142.9h-1.73v-0.867Zm2.6,0h1.73V142.9h-1.73v-0.867Zm2.6,0h1.73V142.9h-1.73v-0.867Zm2.6,0h1.73V142.9h-1.73v-0.867Zm-7.8,1.734h1.73v0.867h-1.73v-0.867Zm2.6,0h1.73v0.867h-1.73v-0.867Zm2.6,0h1.73v0.867h-1.73v-0.867Zm2.6,0h1.73v0.867h-1.73v-0.867Zm-7.8,1.733h1.73v0.866h-1.73V145.5Zm2.6,0h1.73v0.866h-1.73V145.5Zm2.6,0h1.73v0.866h-1.73V145.5Zm2.6,0h1.73v0.866h-1.73V145.5Zm-7.8,1.733h1.73V148.1h-1.73v-0.867Zm2.6,0h1.73V148.1h-1.73v-0.867Zm2.6,0h1.73V148.1h-1.73v-0.867Zm2.6,0h1.73V148.1h-1.73v-0.867Zm-7.8,1.734h1.73v0.867h-1.73v-0.867Zm2.6,0h1.73v0.867h-1.73v-0.867Zm2.6,0h1.73v0.867h-1.73v-0.867Zm2.6,0h1.73v0.867h-1.73v-0.867Zm-21.23-16.9h4.76a0.415,0.415,0,0,0,.44-0.434v-4.766h14.73v6.066h0.87v-6.5a0.414,0.414,0,0,0-.44-0.433h-15.6a0.17,0.17,0,0,0-.13.043h-0.04c-0.04.044-.09,0.044-0.13,0.087l-5.2,5.2a0.949,0.949,0,0,1-.09.13V131.5c0,0.044-.04.087-0.04,0.13h0V136.4h0.87v-4.333Zm4.33-.867h-3.73l1.87-1.863,1.86-1.863V131.2h0Zm5.63,13.434h-4.76v-6.068a0.415,0.415,0,0,0-.44-0.433h-5.2a0.407,0.407,0,0,0-.43.433v13a0.407,0.407,0,0,0,.43.433h10.4a0.414,0.414,0,0,0,.44-0.433v-6.5A0.414,0.414,0,0,0,1572.83,144.633Zm-9.96.866h4.33v1.3h-4.33v-1.3Zm4.33-.866h-4.33v-1.3h4.33v1.3Zm0-2.167h-4.33v-1.3h4.33v1.3Zm-4.33,5.2h4.33v1.3h-4.33v-1.3Zm5.2,0h4.33v1.3h-4.33v-1.3Zm4.33-.867h-4.33v-1.3h4.33v1.3Zm-9.53-7.8h4.33v1.3h-4.33V139Zm0,10.834h4.33v1.3h-4.33v-1.3Zm9.53,1.3h-4.33v-1.3h4.33v1.3Zm6.07-22.967h3.03v0.867h-3.03v-0.867Zm-4.77,2.166h7.8V131.2h-7.8v-0.867Zm7.37,6.067h1.3v0.867h-1.3V136.4Z" transform="translate(-1562 -126)"/>
</svg>
