<svg xmlns="http://www.w3.org/2000/svg" width="27" height="23" viewBox="0 0 27 23">
  <metadata><?xpacket begin="﻿" id="W5M0MpCehiHzreSzNTczkc9d"?>
<x:xmpmeta xmlns:x="adobe:ns:meta/" x:xmptk="Adobe XMP Core 5.6-c138 79.159824, 2016/09/14-01:09:01        ">
   <rdf:RDF xmlns:rdf="http://www.w3.org/1999/02/22-rdf-syntax-ns#">
      <rdf:Description rdf:about=""/>
   </rdf:RDF>
</x:xmpmeta>
                                                                                                    
                                                                                                    
                                                                                                    
                                                                                                    
                                                                                                    
                                                                                                    
                                                                                                    
                                                                                                    
                                                                                                    
                                                                                                    
                                                                                                    
                                                                                                    
                                                                                                    
                                                                                                    
                                                                                                    
                                                                                                    
                                                                                                    
                                                                                                    
                                                                                                    
                                                                                                    
                           
<?xpacket end="w"?></metadata>
<defs>
    <style>
      .cls-1 {
        fill: #787878;
        fill-rule: evenodd;
      }
    </style>
  </defs>
  <path class="cls-1" d="M593.022,133.955l1.246-.916,1.247,0.916a0.441,0.441,0,0,0,.522,0l1.247-.916,1.247,0.916a0.443,0.443,0,0,0,.6-0.078,0.4,0.4,0,0,0-.082-0.582l-1.508-1.108a0.441,0.441,0,0,0-.522,0l-1.247.915-1.247-.915a0.441,0.441,0,0,0-.522,0l-1.508,1.108a0.406,0.406,0,0,0-.081.582A0.442,0.442,0,0,0,593.022,133.955Zm17.547-4.734h-3.537a0.416,0.416,0,1,0,0,.831h3.106v17.863a1.271,1.271,0,0,1-1.292,1.246H586.154a1.272,1.272,0,0,1-1.293-1.246V127.837h17v4.237a0.423,0.423,0,0,0,.431.415h4.394v15.426a0.423,0.423,0,0,0,.431.415h1.724a0.415,0.415,0,1,0,0-.83h-1.293V132.074c0-.014,0-0.028,0-0.041s0-.021,0-0.031,0-.006,0-0.01a0.258,0.258,0,0,0-.009-0.035,0.006,0.006,0,0,0,0,0,0.248,0.248,0,0,0-.013-0.035,0,0,0,0,0,0,0l-0.015-.032,0-.005c0-.009-0.011-0.018-0.017-0.027a0.056,0.056,0,0,0,0-.008c0-.008-0.012-0.016-0.018-0.024l-0.007-.009-0.022-.023-0.006-.007-4.826-4.652-0.007-.006a0.241,0.241,0,0,0-.024-0.021l-0.009-.007-0.025-.018a0.02,0.02,0,0,0-.008,0,0.261,0.261,0,0,0-.028-0.017l-0.006,0a0.187,0.187,0,0,0-.032-0.015h0a0.232,0.232,0,0,0-.037-0.013h0a0.222,0.222,0,0,0-.037-0.009l-0.01,0-0.031,0a0.317,0.317,0,0,0-.043,0H584.431a0.423,0.423,0,0,0-.431.415v20.494a2.119,2.119,0,0,0,2.154,2.077h22.692A2.119,2.119,0,0,0,611,147.915V129.637A0.424,0.424,0,0,0,610.569,129.221Zm-7.841-.8,3.354,3.235h-3.354v-3.235Zm-8.675,13.712h-6.176a0.415,0.415,0,1,0,0,.83h6.176A0.415,0.415,0,1,0,594.053,142.136Zm9.622,0H597.5a0.415,0.415,0,1,0,0,.83h6.175A0.415,0.415,0,1,0,603.675,142.136Zm0-4.666h-15.8a0.416,0.416,0,1,0,0,.831h15.8A0.416,0.416,0,1,0,603.675,137.47Zm-9.622,8.2h-6.176a0.416,0.416,0,1,0,0,.831h6.176A0.416,0.416,0,1,0,594.053,145.672Zm9.622,0H597.5a0.416,0.416,0,1,0,0,.831h6.175A0.416,0.416,0,1,0,603.675,145.672Z" transform="translate(-584 -127)"/>
</svg>
