<svg xmlns="http://www.w3.org/2000/svg" width="14" height="25" viewBox="0 0 14 25">
  <metadata><?xpacket begin="﻿" id="W5M0MpCehiHzreSzNTczkc9d"?>
<x:xmpmeta xmlns:x="adobe:ns:meta/" x:xmptk="Adobe XMP Core 5.6-c138 79.159824, 2016/09/14-01:09:01        ">
   <rdf:RDF xmlns:rdf="http://www.w3.org/1999/02/22-rdf-syntax-ns#">
      <rdf:Description rdf:about=""/>
   </rdf:RDF>
</x:xmpmeta>
                                                                                                    
                                                                                                    
                                                                                                    
                                                                                                    
                                                                                                    
                                                                                                    
                                                                                                    
                                                                                                    
                                                                                                    
                                                                                                    
                                                                                                    
                                                                                                    
                                                                                                    
                                                                                                    
                                                                                                    
                                                                                                    
                                                                                                    
                                                                                                    
                                                                                                    
                                                                                                    
                           
<?xpacket end="w"?></metadata>
<defs>
    <style>
      .cls-1 {
        fill: #555;
        fill-rule: evenodd;
      }
    </style>
  </defs>
  <path id="Forma_1" data-name="Forma 1" class="cls-1" d="M411.377,18H400.622a1.665,1.665,0,0,0-1.629,1.689V41.311A1.666,1.666,0,0,0,400.622,43h10.755a1.665,1.665,0,0,0,1.63-1.689V19.689A1.665,1.665,0,0,0,411.377,18Zm-7.1,1.217h3.44a0.2,0.2,0,0,1,0,.409h-3.44A0.2,0.2,0,0,1,404.28,19.217ZM406,42.156a0.845,0.845,0,1,1,.814-0.845A0.83,0.83,0,0,1,406,42.156Zm5.873-2.281H400.127v-19.2h11.746v19.2Z" transform="translate(-399 -18)"/>
</svg>
