<svg xmlns="http://www.w3.org/2000/svg" width="29" height="29" viewBox="0 0 29 29">
  <metadata><?xpacket begin="﻿" id="W5M0MpCehiHzreSzNTczkc9d"?>
<x:xmpmeta xmlns:x="adobe:ns:meta/" x:xmptk="Adobe XMP Core 5.6-c138 79.159824, 2016/09/14-01:09:01        ">
   <rdf:RDF xmlns:rdf="http://www.w3.org/1999/02/22-rdf-syntax-ns#">
      <rdf:Description rdf:about=""/>
   </rdf:RDF>
</x:xmpmeta>
                                                                                                    
                                                                                                    
                                                                                                    
                                                                                                    
                                                                                                    
                                                                                                    
                                                                                                    
                                                                                                    
                                                                                                    
                                                                                                    
                                                                                                    
                                                                                                    
                                                                                                    
                                                                                                    
                                                                                                    
                                                                                                    
                                                                                                    
                                                                                                    
                                                                                                    
                                                                                                    
                           
<?xpacket end="w"?></metadata>
<defs>
    <style>
      .cls-1 {
        fill: #787878;
        fill-rule: evenodd;
      }
    </style>
  </defs>
  <path id="Forma_1" data-name="Forma 1" class="cls-1" d="M106.389,150.636a0.115,0.115,0,0,0,0-.019V150.6c0-.012,0-0.024-0.005-0.036s0-.007,0-0.01a0.386,0.386,0,0,0-.029-0.089,0.036,0.036,0,0,0,0-.009c-0.005-.011-0.01-0.021-0.016-0.032a0.1,0.1,0,0,0-.008-0.011,0.127,0.127,0,0,0-.018-0.027l-0.009-.012-0.023-.027-0.007-.007a0.328,0.328,0,0,0-.034-0.031l0,0-1.986-1.6a0.42,0.42,0,0,0-.526.655l0.978,0.786a11.054,11.054,0,0,1-6.667-2.99,10.15,10.15,0,0,1-3.073-7.356,0.42,0.42,0,1,0-.84,0,10.981,10.981,0,0,0,3.328,7.958,11.891,11.891,0,0,0,7.206,3.227l-0.98.637a0.42,0.42,0,0,0,.458.7l2.068-1.346h0c0.013-.009.026-0.018,0.038-0.028l0,0,0.028-.027,0.01-.011,0.02-.024,0.009-.012c0.007-.009.013-0.019,0.019-0.028l0.006-.01a0.438,0.438,0,0,0,.037-0.086s0,0,0-.007a0.234,0.234,0,0,0,.009-0.038,0.059,0.059,0,0,0,0-.014,0.311,0.311,0,0,0,0-.032,0.028,0.028,0,0,1,0-.009,0.021,0.021,0,0,1,0-.008v-0.012Zm11.189-21.131a11.887,11.887,0,0,0-7.2-3.226l0.979-.637a0.42,0.42,0,1,0-.457-0.7l-2.068,1.345h0c-0.013.009-.026,0.018-0.038,0.028l-0.005,0a0.345,0.345,0,0,0-.028.026l-0.01.011-0.02.024-0.009.012-0.019.028-0.006.011a0.429,0.429,0,0,0-.037.085s0,0.005,0,.007a0.262,0.262,0,0,0-.009.038,0.068,0.068,0,0,0,0,.014c0,0.011,0,.021,0,0.032s0,0.006,0,.009v0.021a0.109,0.109,0,0,0,0,.018v0.017c0,0.012,0,.024,0,0.036a0.028,0.028,0,0,1,0,.009,0.441,0.441,0,0,0,.029.089,0.036,0.036,0,0,0,0,.009,0.318,0.318,0,0,0,.016.032l0.008,0.012a0.211,0.211,0,0,0,.018.027l0.009,0.011a0.2,0.2,0,0,0,.023.027l0.007,0.008,0.034,0.031h0l1.986,1.6a0.422,0.422,0,0,0,.263.092,0.414,0.414,0,0,0,.327-0.157,0.419,0.419,0,0,0-.064-0.59l-0.978-.785a11.049,11.049,0,0,1,6.667,2.99,10.147,10.147,0,0,1,3.073,7.355,0.42,0.42,0,1,0,.84,0A10.98,10.98,0,0,0,117.578,129.505ZM100.861,124a7.861,7.861,0,1,0,7.861,7.861A7.87,7.87,0,0,0,100.861,124Zm0,14.883a7.022,7.022,0,1,1,7.022-7.022A7.03,7.03,0,0,1,100.861,138.883Zm5.982-6.27a0.419,0.419,0,0,0-.493.331,5.595,5.595,0,0,1-10.976.007,0.42,0.42,0,0,0-.824.163,6.435,6.435,0,0,0,12.624-.009A0.42,0.42,0,0,0,106.843,132.613Zm0.249-2.356a6.435,6.435,0,0,0-12.46-.007,0.42,0.42,0,0,0,.813.21,5.6,5.6,0,0,1,10.834.006A0.42,0.42,0,0,0,107.092,130.257Zm7.047,7.021A7.861,7.861,0,1,0,122,145.139,7.869,7.869,0,0,0,114.139,137.278Zm0,14.883a7.022,7.022,0,1,1,7.021-7.022A7.03,7.03,0,0,1,114.139,152.161Zm6.255-8.529a6.435,6.435,0,0,0-12.5-.031,0.42,0.42,0,1,0,.815.2,5.6,5.6,0,0,1,10.872.027A0.42,0.42,0,0,0,120.394,143.632Zm-0.28,2.311a0.419,0.419,0,0,0-.5.326,5.594,5.594,0,0,1-10.953.024,0.42,0.42,0,0,0-.822.173,6.434,6.434,0,0,0,12.6-.028A0.418,0.418,0,0,0,120.114,145.943Zm-18.969-14.754v-1.978a5.393,5.393,0,0,1,1.169.36,0.541,0.541,0,0,0,.429-0.555c0-.478-0.936-0.682-1.6-0.7v-0.263a0.282,0.282,0,0,0-.293-0.224,0.257,0.257,0,0,0-.283.224v0.283a1.808,1.808,0,0,0-1.851,1.812c0,1.248.975,1.6,1.851,1.91v2.291c-0.994-.078-1.257-0.761-1.578-0.761a0.568,0.568,0,0,0-.448.556c0,0.478.819,1.131,2.027,1.15v0.3a0.257,0.257,0,0,0,.283.224,0.282,0.282,0,0,0,.293-0.224v-0.331a1.888,1.888,0,0,0,1.773-2.008A2.136,2.136,0,0,0,101.145,131.189ZM100.628,131a1.074,1.074,0,0,1-.936-0.955,0.874,0.874,0,0,1,.936-0.819V131Zm0.458,3.323v-2.056a1.138,1.138,0,0,1,.858,1.091A0.927,0.927,0,0,1,101.086,134.327Zm14.571,10.88a1.389,1.389,0,0,0,.724-1.38,1.267,1.267,0,0,0-1.053-1.409h0.022v-0.4a0.4,0.4,0,1,0-.795,0v0.333H114.12v-0.333a0.4,0.4,0,1,0-.8,0v0.333H112.72a0.42,0.42,0,0,0-.011.839v4.548a0.42,0.42,0,0,0,.011.84h0.605v0.353a0.4,0.4,0,1,0,.8,0v-0.353h0.435v0.353a0.4,0.4,0,1,0,.795,0v-0.4h-0.041a1.534,1.534,0,0,0,1.225-1.745V146.63A1.3,1.3,0,0,0,115.657,145.207Zm-2.053-2.053h1a0.759,0.759,0,0,1,.878.818,0.768,0.768,0,0,1-.861.877H113.6v-1.695h0Zm2.027,3.57a0.9,0.9,0,0,1-.962,1.056H113.6v-2.215h1.065a0.866,0.866,0,0,1,.962,1.022v0.137Z" transform="translate(-93 -124)"/>
</svg>
