<svg xmlns="http://www.w3.org/2000/svg" width="24" height="26" viewBox="0 0 24 26">
  <metadata><?xpacket begin="﻿" id="W5M0MpCehiHzreSzNTczkc9d"?>
<x:xmpmeta xmlns:x="adobe:ns:meta/" x:xmptk="Adobe XMP Core 5.6-c138 79.159824, 2016/09/14-01:09:01        ">
   <rdf:RDF xmlns:rdf="http://www.w3.org/1999/02/22-rdf-syntax-ns#">
      <rdf:Description rdf:about=""/>
   </rdf:RDF>
</x:xmpmeta>
                                                                                                    
                                                                                                    
                                                                                                    
                                                                                                    
                                                                                                    
                                                                                                    
                                                                                                    
                                                                                                    
                                                                                                    
                                                                                                    
                                                                                                    
                                                                                                    
                                                                                                    
                                                                                                    
                                                                                                    
                                                                                                    
                                                                                                    
                                                                                                    
                                                                                                    
                                                                                                    
                           
<?xpacket end="w"?></metadata>
<defs>
    <style>
      .cls-1 {
        fill: #787878;
        fill-rule: evenodd;
      }
    </style>
  </defs>
  <path id="Forma_1" data-name="Forma 1" class="cls-1" d="M1424.63,151.5h-23.26a0.376,0.376,0,0,1-.37-0.376v-4.5a4.205,4.205,0,0,1,2.62-3.921l5.5-2.23a0.365,0.365,0,0,1,.29.006,0.374,0.374,0,0,1,.2.215l1.63,4.568,0.54-1.587-0.47-1.171a0.4,0.4,0,0,1,.04-0.352,0.366,0.366,0,0,1,.31-0.166h2.68a0.366,0.366,0,0,1,.31.166,0.4,0.4,0,0,1,.04.352l-0.48,1.171,0.55,1.587,1.63-4.568a0.374,0.374,0,0,1,.2-0.215,0.365,0.365,0,0,1,.29-0.006l5.5,2.23a4.2,4.2,0,0,1,2.62,3.92v4.5A0.376,0.376,0,0,1,1424.63,151.5Zm-22.89-.752h22.52v-4.125a3.456,3.456,0,0,0-2.16-3.222h0l-5.14-2.086-1.86,5.2a0.366,0.366,0,0,1-.35.248h0a0.37,0.37,0,0,1-.35-0.252l-0.93-2.724a0.4,0.4,0,0,1,0-.266l0.32-.784h-1.58l0.32,0.784a0.4,0.4,0,0,1,0,.266l-0.93,2.724a0.37,0.37,0,0,1-.35.252,0.358,0.358,0,0,1-.35-0.248l-1.86-5.2-5.14,2.086a3.457,3.457,0,0,0-2.16,3.222v4.125h0Zm19.57-.686h-4.29a0.376,0.376,0,0,1-.37-0.376v-2.673a0.376,0.376,0,0,1,.37-0.376h4.29a0.376,0.376,0,0,1,.37.376v2.673A0.376,0.376,0,0,1,1421.31,150.061Zm-3.92-.753h3.55v-1.919h-3.55v1.919ZM1413,140.1a4.582,4.582,0,0,1-1.71-.329,3.356,3.356,0,0,1-1.04-.633,11.334,11.334,0,0,1-1.78-2.769c-0.5-.028-1.46-0.3-1.88-1.914a2.442,2.442,0,0,1,.14-1.942,1.451,1.451,0,0,1,.55-0.5,7.154,7.154,0,0,1,1.42-4.517,5.637,5.637,0,0,1,8.6,0,7.156,7.156,0,0,1,1.42,4.517,1.451,1.451,0,0,1,.55.5,2.442,2.442,0,0,1,.14,1.942c-0.42,1.614-1.38,1.886-1.88,1.914a11.334,11.334,0,0,1-1.78,2.769,3.356,3.356,0,0,1-1.04.633A4.582,4.582,0,0,1,1413,140.1Zm-4.3-4.489a0.387,0.387,0,0,1,.34.218,11.83,11.83,0,0,0,1.72,2.759,2.636,2.636,0,0,0,.8.484,3.9,3.9,0,0,0,2.88,0,2.636,2.636,0,0,0,.8-0.484,11.83,11.83,0,0,0,1.72-2.759,0.385,0.385,0,0,1,.42-0.21c0.08,0.014.93,0.118,1.31-1.354a1.735,1.735,0,0,0-.05-1.342,0.635,0.635,0,0,0-.37-0.283,0.382,0.382,0,0,1-.31-0.4h0a7.146,7.146,0,0,0-.14-1.847c-0.98.093-3.81,0.292-5.23-.345a7.43,7.43,0,0,1-2.02-1.314,4.167,4.167,0,0,1-.75,1.351,4.853,4.853,0,0,1-1.77,1.2,7.267,7.267,0,0,0-.01.958,0.382,0.382,0,0,1-.31.4,0.664,0.664,0,0,0-.38.295,1.764,1.764,0,0,0-.04,1.33c0.39,1.526,1.31,1.355,1.32,1.353A0.333,0.333,0,0,1,1408.7,135.608Zm4.3-9.356a5.351,5.351,0,0,0-3.73,1.725,5.48,5.48,0,0,0-1.09,2.416,3.856,3.856,0,0,0,1.09-.825,3.976,3.976,0,0,0,.75-1.649,0.377,0.377,0,0,1,.67-0.153,5.863,5.863,0,0,0,2.2,1.588c1.2,0.537,3.72.384,4.74,0.295a5.084,5.084,0,0,0-.9-1.672A5.322,5.322,0,0,0,1413,126.252Z" transform="translate(-1401 -125.5)"/>
</svg>
