<svg xmlns="http://www.w3.org/2000/svg" width="28" height="26" viewBox="0 0 28 26">
  <metadata><?xpacket begin="﻿" id="W5M0MpCehiHzreSzNTczkc9d"?>
<x:xmpmeta xmlns:x="adobe:ns:meta/" x:xmptk="Adobe XMP Core 5.6-c138 79.159824, 2016/09/14-01:09:01        ">
   <rdf:RDF xmlns:rdf="http://www.w3.org/1999/02/22-rdf-syntax-ns#">
      <rdf:Description rdf:about=""/>
   </rdf:RDF>
</x:xmpmeta>
                                                                                                    
                                                                                                    
                                                                                                    
                                                                                                    
                                                                                                    
                                                                                                    
                                                                                                    
                                                                                                    
                                                                                                    
                                                                                                    
                                                                                                    
                                                                                                    
                                                                                                    
                                                                                                    
                                                                                                    
                                                                                                    
                                                                                                    
                                                                                                    
                                                                                                    
                                                                                                    
                           
<?xpacket end="w"?></metadata>
<defs>
    <style>
      .cls-1 {
        fill: #787878;
        fill-rule: evenodd;
      }
    </style>
  </defs>
  <path class="cls-1" d="M1099.55,144.561h-0.37l-0.82-3.046a0.446,0.446,0,0,0-.43-0.333h-0.37l-0.23-1.337a0.449,0.449,0,0,0-.2-0.3,14.4,14.4,0,0,1-.98-5.877h0.57a1.036,1.036,0,0,0,1.03-1.042v-0.567a1.036,1.036,0,0,0-1.03-1.042h-0.03a3.349,3.349,0,0,0,.29-1.363,3.3,3.3,0,0,0-2.82-3.274V125.45a0.445,0.445,0,1,0-.89,0v0.933a3.3,3.3,0,0,0-2.82,3.273,3.349,3.349,0,0,0,.29,1.363h-0.04a1.036,1.036,0,0,0-1.03,1.042v0.567a1.036,1.036,0,0,0,1.03,1.042h0.58a14.346,14.346,0,0,1-.99,5.877,0.438,0.438,0,0,0-.19.3l-0.24,1.337h-0.37a0.446,0.446,0,0,0-.43.334l-0.1.379a12.93,12.93,0,0,1-.52-4.4h0.57a1.036,1.036,0,0,0,1.03-1.042v-0.567a1.036,1.036,0,0,0-1.03-1.042h-0.04a3.341,3.341,0,0,0,.29-1.362,3.289,3.289,0,0,0-2.81-3.274v-0.932a0.45,0.45,0,1,0-.9,0v0.932a3.289,3.289,0,0,0-2.81,3.274,3.344,3.344,0,0,0,.29,1.362h-0.04a1.036,1.036,0,0,0-1.03,1.042v0.567a1.036,1.036,0,0,0,1.03,1.042h0.57a12.93,12.93,0,0,1-.52,4.4l-0.1-.379a0.446,0.446,0,0,0-.43-0.334h-0.37l-0.24-1.337a0.436,0.436,0,0,0-.19-0.3,14.4,14.4,0,0,1-.98-5.877h0.57a1.036,1.036,0,0,0,1.03-1.042v-0.567a1.036,1.036,0,0,0-1.03-1.042h-0.04a3.349,3.349,0,0,0,.29-1.363,3.3,3.3,0,0,0-2.82-3.273V125.45a0.445,0.445,0,1,0-.89,0v0.933a3.3,3.3,0,0,0-2.82,3.273,3.349,3.349,0,0,0,.29,1.363h-0.03a1.036,1.036,0,0,0-1.03,1.042v0.567a1.036,1.036,0,0,0,1.03,1.042h0.57a14.265,14.265,0,0,1-.98,5.877,0.451,0.451,0,0,0-.2.3l-0.23,1.337h-0.37a0.446,0.446,0,0,0-.43.334l-0.82,3.045h-0.37a0.45,0.45,0,0,0-.45.452v1.709a0.45,0.45,0,0,0,.45.452h8.41l-0.33,1.212h-0.37a0.45,0.45,0,0,0-.45.452v1.71a0.45,0.45,0,0,0,.45.451h11.68a0.45,0.45,0,0,0,.45-0.451v-1.71a0.45,0.45,0,0,0-.45-0.452h-0.37l-0.33-1.212h8.41a0.45,0.45,0,0,0,.45-0.452v-1.709A0.45,0.45,0,0,0,1099.55,144.561Zm-8.85-11.794a0.138,0.138,0,0,1-.14-0.139v-0.567a0.138,0.138,0,0,1,.14-0.139h3.81a0.452,0.452,0,0,0,0-.9h-2.75a2.439,2.439,0,0,1-.42-1.363,2.37,2.37,0,1,1,4.74,0,2.414,2.414,0,0,1-.54,1.527,0.464,0.464,0,0,0-.06.48,0.454,0.454,0,0,0,.41.259h0.83a0.138,0.138,0,0,1,.14.139v0.567a0.138,0.138,0,0,1-.14.139h-6.02Zm1.47,0.9h3.08a14.959,14.959,0,0,0,.91,5.8h-4.9A14.959,14.959,0,0,0,1092.17,133.67Zm-1.26,6.706h5.6l0.15,0.806h-5.89Zm-1.43,3.011,0.35-1.3h7.76l0.66,2.475h-8.48l-0.15-.891a0.43,0.43,0,0,0-.15-0.256A0.031,0.031,0,0,0,1089.48,143.387Zm-6.49-6.795a0.138,0.138,0,0,1-.14-0.139v-0.567a0.138,0.138,0,0,1,.14-0.139h3.8a0.452,0.452,0,0,0,0-.9h-2.74a2.362,2.362,0,0,1-.42-1.362,2.37,2.37,0,1,1,4.74,0,2.416,2.416,0,0,1-.54,1.526,0.464,0.464,0,0,0-.06.48,0.454,0.454,0,0,0,.41.259h0.83a0.138,0.138,0,0,1,.14.139v0.567a0.138,0.138,0,0,1-.14.139h-6.02Zm1.47,0.9h3.08a14.956,14.956,0,0,0,.91,5.8h-4.9A14.956,14.956,0,0,0,1084.46,137.5Zm-1.26,6.706h5.6l0.14,0.807h-5.89Zm6.28,1.71h0.4l0.66,2.475h-9.08l0.66-2.475h7.36Zm-14.2-13.144a0.138,0.138,0,0,1-.14-0.139v-0.567a0.138,0.138,0,0,1,.14-0.139h3.8a0.452,0.452,0,0,0,0-.9h-2.75a2.429,2.429,0,0,1-.41-1.363,2.37,2.37,0,1,1,4.74,0,2.414,2.414,0,0,1-.54,1.527,0.464,0.464,0,0,0-.06.48,0.44,0.44,0,0,0,.4.259h0.84a0.138,0.138,0,0,1,.14.139v0.567a0.138,0.138,0,0,1-.14.139h-6.02Zm1.47,0.9h3.08a14.959,14.959,0,0,0,.91,5.8h-4.9A14.959,14.959,0,0,0,1076.75,133.67Zm-1.27,6.706h5.61l0.14,0.806h-5.89Zm-1.07,1.71h7.76l0.35,1.308v0.021a0.469,0.469,0,0,0-.14.255l-0.15.891h-8.49Zm-1.52,4.185v-0.807h8.43l-0.22.807h-8.21Zm18.51,3.019V150.1h-10.8V149.29h10.8Zm7.71-3.019h-8.21l-0.22-.807h8.43v0.807h0Z" transform="translate(-1072 -125)"/>
</svg>
