<svg xmlns="http://www.w3.org/2000/svg" width="27" height="22" viewBox="0 0 27 22">
  <metadata><?xpacket begin="﻿" id="W5M0MpCehiHzreSzNTczkc9d"?>
<x:xmpmeta xmlns:x="adobe:ns:meta/" x:xmptk="Adobe XMP Core 5.6-c138 79.159824, 2016/09/14-01:09:01        ">
   <rdf:RDF xmlns:rdf="http://www.w3.org/1999/02/22-rdf-syntax-ns#">
      <rdf:Description rdf:about=""/>
   </rdf:RDF>
</x:xmpmeta>
                                                                                                    
                                                                                                    
                                                                                                    
                                                                                                    
                                                                                                    
                                                                                                    
                                                                                                    
                                                                                                    
                                                                                                    
                                                                                                    
                                                                                                    
                                                                                                    
                                                                                                    
                                                                                                    
                                                                                                    
                                                                                                    
                                                                                                    
                                                                                                    
                                                                                                    
                                                                                                    
                           
<?xpacket end="w"?></metadata>
<defs>
    <style>
      .cls-1 {
        fill: #787878;
        fill-rule: evenodd;
      }
    </style>
  </defs>
  <path class="cls-1" d="M1091.43,58.277h-1.03a0.379,0.379,0,0,1-.36-0.244,0.4,0.4,0,0,1,.08-0.431l0.73-.728a0.557,0.557,0,0,0,0-.8l-0.92-.927a0.591,0.591,0,0,0-.81,0l-0.72.728a0.384,0.384,0,0,1-.43.085,0.379,0.379,0,0,1-.25-0.365V54.566a0.563,0.563,0,0,0-.56-0.566h-1.32a0.563,0.563,0,0,0-.56.566v1.029a0.379,0.379,0,0,1-.25.365,0.384,0.384,0,0,1-.43-0.085l-0.72-.728a0.591,0.591,0,0,0-.81,0l-0.92.927a0.557,0.557,0,0,0,0,.8l0.72,0.728a0.386,0.386,0,0,1,.09.431,0.379,0.379,0,0,1-.36.244h-1.03a0.565,0.565,0,0,0-.57.566v1.311a0.565,0.565,0,0,0,.57.567h1.03a0.38,0.38,0,0,1,.36.244,0.385,0.385,0,0,1-.09.43l-0.72.728a0.557,0.557,0,0,0,0,.8l0.92,0.927a0.59,0.59,0,0,0,.81,0l0.72-.727a0.385,0.385,0,0,1,.43-0.086,0.38,0.38,0,0,1,.25.365v1.029a0.563,0.563,0,0,0,.56.566h1.32a0.563,0.563,0,0,0,.56-0.566V63.4a0.38,0.38,0,0,1,.25-0.365,0.385,0.385,0,0,1,.43.086l0.72,0.727a0.578,0.578,0,0,0,.8,0l0.93-.927a0.557,0.557,0,0,0,0-.8l-0.73-.728a0.4,0.4,0,0,1-.08-0.43,0.38,0.38,0,0,1,.36-0.244h1.03a0.565,0.565,0,0,0,.57-0.566V58.843A0.565,0.565,0,0,0,1091.43,58.277Zm0.16,1.878a0.159,0.159,0,0,1-.16.159h-1.03a0.8,0.8,0,0,0-.56,1.37l0.72,0.728a0.146,0.146,0,0,1,0,.225l-0.92.927a0.165,0.165,0,0,1-.23,0l-0.73-.727a0.8,0.8,0,0,0-1.37.567v1.029a0.157,0.157,0,0,1-.15.159h-1.32a0.157,0.157,0,0,1-.15-0.159V63.4a0.788,0.788,0,0,0-.5-0.742,0.8,0.8,0,0,0-.88.174l-0.72.727a0.165,0.165,0,0,1-.23,0l-0.92-.927a0.146,0.146,0,0,1,0-.225l0.72-.728a0.8,0.8,0,0,0-.56-1.37h-1.03a0.159,0.159,0,0,1-.16-0.159V58.843a0.158,0.158,0,0,1,.16-0.159h1.03a0.8,0.8,0,0,0,.56-1.37l-0.72-.727a0.147,0.147,0,0,1,0-.225l0.92-.927a0.165,0.165,0,0,1,.23,0l0.72,0.727a0.8,0.8,0,0,0,.88.174,0.787,0.787,0,0,0,.5-0.741V54.566a0.156,0.156,0,0,1,.15-0.159h1.32a0.156,0.156,0,0,1,.15.159v1.029a0.8,0.8,0,0,0,1.37.568l0.73-.727a0.165,0.165,0,0,1,.23,0l0.92,0.927a0.146,0.146,0,0,1,0,.225l-0.72.728a0.8,0.8,0,0,0,.56,1.37h1.03a0.158,0.158,0,0,1,.16.159v1.312Zm-5.09-2.489a1.833,1.833,0,1,0,1.83,1.834A1.833,1.833,0,0,0,1086.5,57.666Zm0,3.26a1.426,1.426,0,1,1,1.43-1.426A1.429,1.429,0,0,1,1086.5,60.925Zm13.01-14.935h-26.02a0.5,0.5,0,0,0-.49.5V62.252a0.49,0.49,0,1,0,.98,0V52.012h17.62a0.5,0.5,0,0,0,0-1h-17.62V46.99h25.04v4.021h-5.78a0.5,0.5,0,0,0,0,1h5.78v15h-25.04V63.919a0.49,0.49,0,1,0-.98,0v3.589a0.5,0.5,0,0,0,.49.5h26.02a0.5,0.5,0,0,0,.49-0.5V46.491A0.5,0.5,0,0,0,1099.51,45.99Zm-23.34,1.444A1.568,1.568,0,1,0,1077.7,49,1.555,1.555,0,0,0,1076.17,47.433Zm0,2.135a0.567,0.567,0,0,1,0-1.134A0.567,0.567,0,0,1,1076.17,49.568Zm6.47-2.135A1.568,1.568,0,1,0,1084.17,49,1.555,1.555,0,0,0,1082.64,47.433Zm0,2.135a0.567,0.567,0,0,1,0-1.134A0.567,0.567,0,0,1,1082.64,49.568Zm-3.24-2.135A1.568,1.568,0,1,0,1080.94,49,1.553,1.553,0,0,0,1079.4,47.433Zm0,2.135a0.567,0.567,0,1,1,.56-0.567A0.561,0.561,0,0,1,1079.4,49.568Z" transform="translate(-1073 -46)"/>
</svg>
