<svg xmlns="http://www.w3.org/2000/svg" width="27" height="27" viewBox="0 0 27 27">
  <path id="Forma_1" data-name="Forma 1" class="cls-1" d="M1423,394.5a13.5,13.5,0,1,0,13.5,13.5A13.517,13.517,0,0,0,1423,394.5Zm0,25.959A12.461,12.461,0,1,1,1435.46,408,12.475,12.475,0,0,1,1423,420.46Zm0-6.749a0.517,0.517,0,0,0-.52.519v1.038a0.52,0.52,0,0,0,1.04,0V414.23A0.517,0.517,0,0,0,1423,413.711Zm0.06-14.537H1423a4.141,4.141,0,0,0-4.15,4.154,0.515,0.515,0,1,0,1.03,0,3.119,3.119,0,0,1,3.16-3.115,3.166,3.166,0,0,1,3.07,3.07,3.083,3.083,0,0,1-1.42,2.665,4.957,4.957,0,0,0-2.21,4.211v1.476a0.52,0.52,0,0,0,1.04,0v-1.476a3.964,3.964,0,0,1,1.73-3.339,4.136,4.136,0,0,0,1.9-3.551A4.182,4.182,0,0,0,1423.06,399.174Z" transform="translate(-1409.5 -394.5)"/>
</svg>
