<svg xmlns="http://www.w3.org/2000/svg" width="27" height="27" viewBox="0 0 27 27">
  <path id="_1" data-name="1" class="cls-1" d="M1216.5,394a13.5,13.5,0,1,0,13.5,13.5A13.518,13.518,0,0,0,1216.5,394Zm0,26.1a12.6,12.6,0,1,1,12.6-12.6A12.613,12.613,0,0,1,1216.5,420.1Zm0.45-14.391v-4.564a0.45,0.45,0,1,0-.9,0v4.564a1.814,1.814,0,0,0-1.29,1.286h-3.21a0.45,0.45,0,1,0,0,.9h3.21A1.8,1.8,0,1,0,1216.95,405.709Zm-0.45,2.636a0.9,0.9,0,1,1,.9-0.9A0.9,0.9,0,0,1,1216.5,408.345Zm0-9.9a0.449,0.449,0,0,0,.45-0.45v-0.45a0.45,0.45,0,1,0-.9,0V398A0.449,0.449,0,0,0,1216.5,398.445Zm0,18a0.449,0.449,0,0,0-.45.45v0.45a0.45,0.45,0,0,0,.9,0V416.9A0.449,0.449,0,0,0,1216.5,416.445Zm9.9-9.45h-0.45a0.45,0.45,0,1,0,0,.9h0.45A0.45,0.45,0,1,0,1226.4,407Zm-19.35,0h-0.45a0.45,0.45,0,0,0,0,.9h0.45A0.45,0.45,0,0,0,1207.05,407Zm16.13-6.869-0.32.319a0.46,0.46,0,0,0,0,.636,0.465,0.465,0,0,0,.32.132,0.448,0.448,0,0,0,.32-0.132l0.32-.318a0.462,0.462,0,0,0,0-.637A0.455,0.455,0,0,0,1223.18,400.126Zm-13.68,13.683-0.32.318a0.462,0.462,0,0,0,0,.637,0.451,0.451,0,0,0,.32.131,0.469,0.469,0,0,0,.32-0.131l0.32-.318a0.462,0.462,0,0,0,0-.637A0.455,0.455,0,0,0,1209.5,413.809Zm14,0a0.454,0.454,0,0,0-.64,0,0.462,0.462,0,0,0,0,.637l0.32,0.318a0.456,0.456,0,0,0,.64,0,0.462,0.462,0,0,0,0-.637Zm-13.68-13.683a0.454,0.454,0,0,0-.64,0,0.462,0.462,0,0,0,0,.637l0.32,0.318a0.448,0.448,0,0,0,.32.132,0.465,0.465,0,0,0,.32-0.132,0.46,0.46,0,0,0,0-.636Z" transform="translate(-1203 -394)"/>
</svg>
