<svg xmlns="http://www.w3.org/2000/svg" width="31" height="22" viewBox="0 0 31 22">
  <path id="_3" data-name="3" class="cls-1" d="M1306.1,414.993a0.485,0.485,0,0,1-.34-0.136l-5.75-5.388a0.489,0.489,0,0,1-.03-0.7,0.5,0.5,0,0,1,.71-0.022l5.75,5.387a0.5,0.5,0,0,1,.02.7A0.48,0.48,0,0,1,1306.1,414.993Zm-19.2,0a0.518,0.518,0,0,1-.37-0.158,0.508,0.508,0,0,1,.03-0.7l5.75-5.387a0.5,0.5,0,0,1,.71.022,0.5,0.5,0,0,1-.02.7l-5.76,5.388A0.485,0.485,0,0,1,1286.9,414.993ZM1309.5,420h-26a2.5,2.5,0,0,1-2.5-2.5V400.493a2.5,2.5,0,0,1,2.5-2.5h26a2.5,2.5,0,0,1,2.5,2.5v17.014A2.5,2.5,0,0,1,1309.5,420ZM1283.5,399a1.5,1.5,0,0,0-1.5,1.5v17.014a1.5,1.5,0,0,0,1.5,1.5h26a1.5,1.5,0,0,0,1.5-1.5V400.493a1.5,1.5,0,0,0-1.5-1.5h-26Zm13,12.511a2.827,2.827,0,0,1-1.84-.66l-12.83-11.179a0.5,0.5,0,0,1-.05-0.7,0.508,0.508,0,0,1,.71-0.048l12.83,11.178a1.878,1.878,0,0,0,2.36,0l12.82-11.16a0.5,0.5,0,1,1,.65.752l-12.81,11.161A2.823,2.823,0,0,1,1296.5,411.507Z" transform="translate(-1281 -398)"/>
</svg>
