<svg xmlns="http://www.w3.org/2000/svg" width="22" height="22" viewBox="0 0 22 22">
  <metadata><?xpacket begin="﻿" id="W5M0MpCehiHzreSzNTczkc9d"?>
<x:xmpmeta xmlns:x="adobe:ns:meta/" x:xmptk="Adobe XMP Core 5.6-c140 79.160451, 2017/05/06-01:08:21        ">
   <rdf:RDF xmlns:rdf="http://www.w3.org/1999/02/22-rdf-syntax-ns#">
      <rdf:Description rdf:about=""/>
   </rdf:RDF>
</x:xmpmeta>
                                                                                                    
                                                                                                    
                                                                                                    
                                                                                                    
                                                                                                    
                                                                                                    
                                                                                                    
                                                                                                    
                                                                                                    
                                                                                                    
                                                                                                    
                                                                                                    
                                                                                                    
                                                                                                    
                                                                                                    
                                                                                                    
                                                                                                    
                                                                                                    
                                                                                                    
                                                                                                    
                           
<?xpacket end="w"?></metadata>
<defs>
    <style>
      .cls-1 {
        fill: #fff;
        fill-rule: evenodd;
      }
    </style>
  </defs>
  <path id="Forma_1" data-name="Forma 1" class="cls-1" d="M511.14,1592.31c1.687-2.43,2.679-3.99,3.4-5.15-2.78.25-5.444,3.7-5.444,3.7l1.835,1.84A1.694,1.694,0,0,1,511.14,1592.31Zm7.163,7.76,1.834,1.83s3.458-2.66,3.7-5.44c-1.155.72-2.719,1.72-5.147,3.4A1.576,1.576,0,0,1,518.3,1600.07Zm-2.788-.95c-0.314.13-.624,0.26-0.946,0.37a14.181,14.181,0,0,1-2.648.61c-0.377.05-.758,0.1-1.139,0.12,0-.04.007-0.09,0.011-0.14a17.287,17.287,0,0,1,.444-2.72,13.172,13.172,0,0,1,.395-1.26c0.093-.26.208-0.51,0.325-0.76l-0.2-.2a4.972,4.972,0,0,0-1.17,1.11,7.344,7.344,0,0,0-1.114,2.12,8.9,8.9,0,0,0-.467,2.55,2.062,2.062,0,0,0,.007.36,0.874,0.874,0,0,0,.195.43,0.936,0.936,0,0,0,.384.25,1.2,1.2,0,0,0,.378.04,8.762,8.762,0,0,0,2.33-.36,6.482,6.482,0,0,0,3.569-2.39l-0.2-.2A1.07,1.07,0,0,1,515.515,1599.12Zm15.263-18.9h0a0.77,0.77,0,0,0-.538-0.22h-0.015c-2.449.05-8.491,0.51-11.7,3.71a17.621,17.621,0,0,0-2.968,3.88c-0.747,1.2-1.77,2.84-3.64,5.53a0.759,0.759,0,0,0,.087.97l4.906,4.91a0.745,0.745,0,0,0,.538.22,0.7,0.7,0,0,0,.434-0.14c2.692-1.87,4.33-2.89,5.526-3.64a17.39,17.39,0,0,0,3.877-2.96c3.215-3.22,3.67-9.26,3.716-11.71A0.769,0.769,0,0,0,530.778,1580.22Zm-5.68,9.26a2.53,2.53,0,1,1,0-3.58A2.525,2.525,0,0,1,525.1,1589.48Z" transform="translate(-509 -1580)"/>
</svg>
