<svg xmlns="http://www.w3.org/2000/svg" width="21" height="21" viewBox="0 0 21 21">
  <path d="M1172.41,2561.71v-1.27a1.285,1.285,0,0,1,1.28-1.29h11.62a1.285,1.285,0,0,1,1.28,1.29v1.27l1.63-1.67a0.319,0.319,0,0,0,.1-0.26,0.313,0.313,0,0,0-.13-0.25l-7.91-6.26a1.262,1.262,0,0,0-1.56,0l-7.91,6.26a0.313,0.313,0,0,0-.13.25,0.346,0.346,0,0,0,.09.26Zm17.38-.65a0.341,0.341,0,0,0-.37.08l-8.67,8.81a1.739,1.739,0,0,1-2.5,0l-8.67-8.81a0.336,0.336,0,0,0-.58.24v11.2a1.415,1.415,0,0,0,1.4,1.42h18.2a1.415,1.415,0,0,0,1.4-1.42v-11.2A0.339,0.339,0,0,0,1189.79,2561.06Zm-6.41.07h-7.76a0.715,0.715,0,0,0,0,1.43h7.76A0.715,0.715,0,0,0,1183.38,2561.13Zm0,2.85h-7.76a0.71,0.71,0,0,0,0,1.42h7.76A0.71,0.71,0,0,0,1183.38,2563.98Z" transform="translate(-1169 -2553)"/>
</svg>
