<svg fill="#444444" xmlns="http://www.w3.org/2000/svg" width="15.781" height="15.782" viewBox="0 0 15.781 15.782">
  <path d="M659.393,981.571a4.258,4.258,0,1,1,3-1.247A4.093,4.093,0,0,1,659.393,981.571Zm8.756,2.789-3.253-3.253a6.669,6.669,0,0,0,.649-6.38,6.54,6.54,0,0,0-3.557-3.558,6.662,6.662,0,0,0-5.189,0,6.538,6.538,0,0,0-3.558,3.558,6.662,6.662,0,0,0,0,5.189,6.54,6.54,0,0,0,3.558,3.557,6.667,6.667,0,0,0,6.379-.649l3.254,3.244a1.131,1.131,0,0,0,.854.361,1.214,1.214,0,0,0,.863-2.069h0Z" transform="translate(-652.719 -970.656)"/>
</svg>
