<svg xmlns="http://www.w3.org/2000/svg" width="24" height="20" viewBox="0 0 24 20">
  <path d="M462.125,2565.54a4.877,4.877,0,1,0,4.875-5A4.939,4.939,0,0,0,462.125,2565.54Zm15.375-8.46h-5.25c-0.375-1.54-.75-3.08-2.25-3.08h-6c-1.5,0-1.875,1.54-2.25,3.08H456.5a1.523,1.523,0,0,0-1.5,1.54v13.84a1.523,1.523,0,0,0,1.5,1.54h21a1.523,1.523,0,0,0,1.5-1.54v-13.84A1.523,1.523,0,0,0,477.5,2557.08ZM467,2572.37a6.832,6.832,0,1,1,6.656-6.83A6.746,6.746,0,0,1,467,2572.37Zm10.5-10.68h-3v-1.54h3v1.54Z" transform="translate(-455 -2554)"/>
</svg>
