<svg xmlns="http://www.w3.org/2000/svg" width="28" height="36.62" viewBox="0 0 28 36.62">
  <path id="user" class="cls-1" d="M425,2981.6c4.093,0,7.412-4.01,7.412-8.95s-1.09-8.96-7.412-8.96-7.411,4.01-7.411,8.96S420.906,2981.6,425,2981.6Zm-14,13.67c0-.3,0-0.09,0,0h0Zm28,0.24c0-.09,0-0.58,0,0h0Zm-0.016-.6c-0.137-8.62-1.268-11.07-9.924-12.62a6.117,6.117,0,0,1-8.116,0c-8.562,1.53-9.761,3.95-9.919,12.34a2.061,2.061,0,0,1-.021.64c0,0.15,0,.42,0,0.9,0,0,2.06,4.14,14,4.14s14-4.14,14-4.14v-0.66C439,2995.55,438.99,2995.46,438.981,2994.91Z" transform="translate(-411 -2963.69)"/>
</svg>
