<svg xmlns="http://www.w3.org/2000/svg" width="21" height="18" viewBox="0 0 21 18">
  <path d="M408.731,2565.82h2.827a1.219,1.219,0,0,1,1.212,1.23v0.4a3.179,3.179,0,0,1-.947,2.32,3.092,3.092,0,0,1-2.284.96h-0.808a0.776,0.776,0,0,0-.568.24,0.785,0.785,0,0,0-.24.58v1.63a0.8,0.8,0,0,0,.24.58,0.776,0.776,0,0,0,.568.24h0.808a6.146,6.146,0,0,0,2.5-.52,6.58,6.58,0,0,0,3.957-6.03v-9a2.394,2.394,0,0,0-.707-1.74,2.346,2.346,0,0,0-1.717-.71h-4.846a2.346,2.346,0,0,0-1.717.71,2.394,2.394,0,0,0-.707,1.74v4.91a2.375,2.375,0,0,0,.708,1.74A2.314,2.314,0,0,0,408.731,2565.82Zm-13.025-.72a2.314,2.314,0,0,0,1.716.72h2.827a1.217,1.217,0,0,1,1.211,1.23v0.4a3.178,3.178,0,0,1-.946,2.32,3.09,3.09,0,0,1-2.284.96h-0.808a0.776,0.776,0,0,0-.568.24,0.785,0.785,0,0,0-.24.58v1.63a0.8,0.8,0,0,0,.24.58,0.776,0.776,0,0,0,.568.24h0.808a6.146,6.146,0,0,0,2.5-.52,6.4,6.4,0,0,0,2.064-1.4,6.648,6.648,0,0,0,1.893-4.63v-9a2.394,2.394,0,0,0-.707-1.74,2.343,2.343,0,0,0-1.716-.71h-4.847a2.343,2.343,0,0,0-1.716.71,2.394,2.394,0,0,0-.707,1.74v4.91A2.378,2.378,0,0,0,395.706,2565.1Z" transform="translate(-395 -2556)"/>
</svg>
