<svg fill="#858585" xmlns="http://www.w3.org/2000/svg" width="14" height="14" viewBox="0 0 14 14">
  <path d="M405.093,1143.91a3.084,3.084,0,0,0-4.37,0l-8.012,8.01a0.383,0.383,0,0,0-.114.23L392,1156.54a0.405,0.405,0,0,0,.113.34,0.43,0.43,0,0,0,.283.12h0.054l2.649-.36a0.4,0.4,0,0,0-.107-0.8l-2.124.29,0.414-3.07,3.228,3.23a0.395,0.395,0,0,0,.567,0l8.012-8.01a3.081,3.081,0,0,0,.907-2.19A3.041,3.041,0,0,0,405.093,1143.91Zm-4.215.98,1.345,1.35-7.311,7.31-1.345-1.35Zm-4.078,10.54-1.315-1.31,7.311-7.31,1.316,1.31Zm7.872-7.88-3.218-3.22A2.287,2.287,0,0,1,404.672,1147.55Z" transform="translate(-392 -1143)"/>
</svg>
