<svg xmlns="http://www.w3.org/2000/svg" width="32" height="31" viewBox="0 0 32 31">
  <path d="M782,84.583a0.665,0.665,0,0,0-.665-0.665H775.52q0.021-.623.022-1.254A0.665,0.665,0,0,0,774.877,82H757.122a0.665,0.665,0,0,0-.665.665q0,0.631.023,1.254h-5.816a0.664,0.664,0,0,0-.664.665A9.868,9.868,0,0,0,758.8,94.6q0.16,0.349.332,0.686c1.339,2.626,3.035,4.372,4.9,5.091a3.223,3.223,0,0,0,.166,5.223v0.712a3.745,3.745,0,0,1-3.738,3.742,0.664,0.664,0,0,0-.664.665v1.62a0.664,0.664,0,0,0,.664.665h11.079a0.665,0.665,0,0,0,.665-0.665v-1.62a0.665,0.665,0,0,0-.665-0.665,3.742,3.742,0,0,1-3.739-3.742V105.6a3.222,3.222,0,0,0,.167-5.223c1.868-.719,3.564-2.465,4.9-5.091q0.171-.336.332-0.686A9.869,9.869,0,0,0,782,84.583Zm-6.553.666h2.5a8.772,8.772,0,0,1-3.712,6.624A30.075,30.075,0,0,0,775.447,85.249Zm-18.895,0a30.017,30.017,0,0,0,1.213,6.624,8.773,8.773,0,0,1-3.713-6.624h2.5Zm-5.2,0h1.368a10.129,10.129,0,0,0,3.983,7.5A8.661,8.661,0,0,1,751.353,85.249Zm16.6,24.645a5.037,5.037,0,0,0,2.919,1.443v0.331h-9.749v-0.332a5.079,5.079,0,0,0,4.4-5.029v-0.2a3.193,3.193,0,0,0,.943,0v0.2A5.042,5.042,0,0,0,767.955,109.894ZM766,104.816a1.894,1.894,0,1,1,1.891-1.893A1.894,1.894,0,0,1,766,104.816Zm0-5.4c-2.109,0-4.128-1.683-5.686-4.738a26.646,26.646,0,0,1-2.521-11.346h16.413a26.645,26.645,0,0,1-2.521,11.346C770.127,97.731,768.109,99.414,766,99.414Zm9.295-6.665a10.133,10.133,0,0,0,3.984-7.5h1.367A8.661,8.661,0,0,1,775.3,92.749Z" transform="translate(-750 -82)"/>
</svg>
