<svg xmlns="http://www.w3.org/2000/svg" width="31" height="32" viewBox="0 0 31 32">
  <path class="cls-1" d="M874.36,744.75h-1.4v-19.9a1.7,1.7,0,0,0-1.719-1.68H868.1a1.7,1.7,0,0,0-1.719,1.68v19.9h-3.561V733.864a1.7,1.7,0,0,0-1.719-1.681H857.97a1.7,1.7,0,0,0-1.719,1.681V744.75H852.69v-5.638a1.7,1.7,0,0,0-1.719-1.68h-3.135a1.7,1.7,0,0,0-1.719,1.68v5.638h-1.478a0.625,0.625,0,1,0,0,1.25H874.36A0.625,0.625,0,1,0,874.36,744.75Zm-22.949,0H847.4v-5.638a0.436,0.436,0,0,1,.44-0.43h3.135a0.435,0.435,0,0,1,.44.43v5.638h0Zm10.134,0H857.53V733.864a0.436,0.436,0,0,1,.44-0.431h3.135a0.436,0.436,0,0,1,.44.431V744.75Zm10.134,0h-4.015v-19.9a0.436,0.436,0,0,1,.44-0.43h3.135a0.435,0.435,0,0,1,.44.43v19.9h0Zm1.277-30.093a0.617,0.617,0,0,0-.185-0.475,0.645,0.645,0,0,0-.485-0.181l-0.031,0h-3.869a0.625,0.625,0,1,0,0,1.25h2.389l-6.322,6.179-2.383-2.33a0.651,0.651,0,0,0-.905,0l-11.5,11.236a0.615,0.615,0,0,0,0,.884,0.65,0.65,0,0,0,.9,0l11.043-10.794,2.384,2.33a0.651,0.651,0,0,0,.9,0l6.773-6.621v2.113a0.64,0.64,0,0,0,1.279,0v-3.559A0.283,0.283,0,0,0,872.956,714.657Zm-24.989,17.674a0.625,0.625,0,1,1-.639.625A0.632,0.632,0,0,1,847.967,732.331Z" transform="translate(-844 -714)"/>
</svg>
