<svg xmlns="http://www.w3.org/2000/svg" width="27" height="22" viewBox="0 0 27 22">
  <metadata><?xpacket begin="﻿" id="W5M0MpCehiHzreSzNTczkc9d"?>
<x:xmpmeta xmlns:x="adobe:ns:meta/" x:xmptk="Adobe XMP Core 5.6-c138 79.159824, 2016/09/14-01:09:01        ">
   <rdf:RDF xmlns:rdf="http://www.w3.org/1999/02/22-rdf-syntax-ns#">
      <rdf:Description rdf:about=""/>
   </rdf:RDF>
</x:xmpmeta>
                                                                                                    
                                                                                                    
                                                                                                    
                                                                                                    
                                                                                                    
                                                                                                    
                                                                                                    
                                                                                                    
                                                                                                    
                                                                                                    
                                                                                                    
                                                                                                    
                                                                                                    
                                                                                                    
                                                                                                    
                                                                                                    
                                                                                                    
                                                                                                    
                                                                                                    
                                                                                                    
                           
<?xpacket end="w"?></metadata>
<defs>
    <style>
      .cls-1 {
        fill: #787878;
        fill-rule: evenodd;
      }
    </style>
  </defs>
  <path id="Forma_1" data-name="Forma 1" class="cls-1" d="M597.935,64.139V51.2a0.436,0.436,0,0,0-.871,0V64.139A0.436,0.436,0,0,0,597.935,64.139Zm12.629-16.2a11.345,11.345,0,0,1-3.282-.814A15.841,15.841,0,0,0,602.192,46a5.318,5.318,0,0,0-4.071,1.678,5.214,5.214,0,0,0-.621.828,5.214,5.214,0,0,0-.621-0.828A5.318,5.318,0,0,0,592.808,46a15.841,15.841,0,0,0-5.09,1.131,11.351,11.351,0,0,1-3.283.814,0.434,0.434,0,0,0-.435.433V65.832a0.434,0.434,0,0,0,.435.433A11.864,11.864,0,0,0,588,65.4a15.169,15.169,0,0,1,4.8-1.083,4.445,4.445,0,0,1,3.428,1.4,0.437,0.437,0,0,0,.615.027,0.432,0.432,0,0,0,.028-0.612,5.318,5.318,0,0,0-4.071-1.678,15.838,15.838,0,0,0-5.09,1.131,14.567,14.567,0,0,1-2.847.788V48.789a14.448,14.448,0,0,0,3.132-.84,15.169,15.169,0,0,1,4.8-1.083,4.3,4.3,0,0,1,4.276,2.768,0.436,0.436,0,0,0,.832,0,4.335,4.335,0,0,1,4.276-2.768,15.169,15.169,0,0,1,4.8,1.083,14.433,14.433,0,0,0,3.132.84V65.373a14.567,14.567,0,0,1-2.847-.788,15.838,15.838,0,0,0-5.09-1.131,5.317,5.317,0,0,0-4.071,1.678,0.432,0.432,0,0,0,.027.612,0.438,0.438,0,0,0,.616-0.028,4.445,4.445,0,0,1,3.428-1.4A15.169,15.169,0,0,1,607,65.4a11.856,11.856,0,0,0,3.567.862A0.434,0.434,0,0,0,611,65.833V48.377A0.435,0.435,0,0,0,610.564,47.944Zm0,19.189a11.337,11.337,0,0,1-3.282-.814,15.83,15.83,0,0,0-5.09-1.131,5.35,5.35,0,0,0-3.937,1.537h-1.51a5.352,5.352,0,0,0-3.937-1.537,15.83,15.83,0,0,0-5.09,1.131,11.343,11.343,0,0,1-3.283.814,0.433,0.433,0,1,0,0,.867A11.864,11.864,0,0,0,588,67.138a15.161,15.161,0,0,1,4.8-1.083,4.445,4.445,0,0,1,3.428,1.4,0.436,0.436,0,0,0,.322.141h1.884a0.438,0.438,0,0,0,.322-0.141,4.444,4.444,0,0,1,3.428-1.4,15.173,15.173,0,0,1,4.8,1.083,11.865,11.865,0,0,0,3.567.861A0.433,0.433,0,1,0,610.564,67.133Z" transform="translate(-584 -46)"/>
</svg>
